P2
64 64
255
217 144 139 110 161 108 72 124 215 223 191 129 53 41 110 203 195 193 199 138 131 159 170 159 107 92 76 108 146 177 208 209 159 98 139 222 184 158 107 148 173 159 143 87 122 155 141 131 96 114 165 81 89 73 128 137 193 193 213 211 196 193 206 181 
149 116 134 154 131 107 140 141 125 120 121 129 129 123 117 126 110 151 144 176 139 119 165 151 157 146 172 148 123 130 171 116 126 168 100 102 158 166 150 166 177 105 95 124 152 152 155 119 130 137 107 168 130 105 83 76 153 217 188 174 202 117 125 179 
149 131 121 161 168 124 122 112 101 95 118 116 152 122 139 121 134 125 130 117 136 144 156 153 161 177 165 175 143 130 140 121 88 173 155 127 110 143 192 161 160 109 73 141 140 173 121 150 152 114 163 178 173 135 111 74 129 163 120 96 147 96 107 113 
146 182 171 130 139 117 156 149 148 140 142 125 120 57 131 149 157 142 113 139 127 126 156 195 163 176 140 128 163 181 146 155 174 145 155 160 96 95 72 109 144 123 87 113 125 111 154 168 182 193 213 134 122 115 131 144 102 101 103 91 104 161 171 105 
181 148 158 124 137 146 122 141 153 125 119 138 92 90 73 150 138 151 139 124 191 123 124 177 166 150 134 151 183 148 165 171 177 161 144 108 111 100 83 102 130 119 126 121 141 120 120 142 131 161 164 111 109 127 126 188 149 97 116 109 104 121 153 134 
128 151 103 96 127 136 107 114 174 142 64 138 167 74 85 90 102 135 122 111 105 113 138 126 115 160 172 141 144 161 202 155 152 164 150 87 164 161 146 136 64 135 141 139 131 62 122 135 100 109 145 147 129 151 202 175 155 140 110 123 191 158 132 183 
102 127 151 90 120 164 100 99 146 147 144 138 140 74 89 129 150 135 125 144 98 117 141 175 181 142 96 100 191 166 117 152 124 112 101 146 137 167 159 122 50 90 96 158 167 179 165 167 110 124 174 109 140 106 126 124 119 138 181 160 179 135 125 156 
97 121 124 84 130 174 141 112 143 160 171 157 141 81 108 154 149 169 143 121 125 140 125 164 146 135 106 87 165 176 90 102 120 118 132 143 156 195 193 153 51 68 84 149 170 187 153 169 99 127 177 138 145 85 122 105 150 137 153 185 185 94 110 166 
174 141 100 95 129 108 134 182 175 176 201 132 106 90 120 173 139 130 96 61 99 140 157 98 88 105 165 154 96 155 159 134 116 167 138 135 184 164 133 152 205 136 103 104 117 192 165 147 142 136 126 142 117 157 158 203 161 154 106 105 177 156 142 98 
125 122 140 120 108 48 138 202 172 151 171 125 99 104 137 119 158 109 93 103 79 145 153 142 131 140 173 166 117 147 117 130 109 162 130 147 133 143 132 139 163 132 104 70 119 172 141 168 143 154 162 176 155 157 137 132 138 152 97 99 164 176 151 100 
87 156 172 101 104 83 153 186 201 185 178 133 146 109 163 174 168 174 155 138 118 153 139 176 151 147 119 138 150 110 135 98 121 123 165 118 124 89 101 83 93 63 113 133 164 185 129 167 91 139 158 198 154 115 83 116 106 143 122 125 170 114 101 101 
102 143 136 153 146 82 166 185 137 157 138 126 112 136 150 173 165 164 172 109 77 124 121 147 109 112 99 105 112 135 148 139 161 104 79 103 112 99 141 116 81 84 121 109 129 183 132 182 137 167 184 112 124 96 120 153 185 157 131 113 76 97 150 135 
72 72 104 163 158 114 144 180 161 142 143 157 100 183 134 179 150 151 142 112 134 129 115 138 132 109 108 89 128 116 159 153 154 105 103 103 124 120 164 126 67 82 105 68 146 195 151 136 181 153 152 100 93 82 105 168 190 155 144 131 80 108 141 112 
64 81 76 122 109 83 125 167 153 160 158 165 173 183 151 150 144 140 154 113 64 101 102 167 138 84 143 176 151 159 154 123 131 165 163 165 182 158 110 148 107 108 131 135 122 116 109 98 96 154 155 144 154 94 94 108 150 108 147 153 79 99 85 89 
73 111 90 125 94 132 131 156 170 170 130 139 161 168 145 116 156 154 148 147 107 126 145 192 159 125 111 166 140 175 173 117 122 156 152 148 166 122 126 117 128 100 141 160 92 54 102 115 101 148 159 124 147 128 116 93 147 135 179 181 57 78 66 91 
101 146 214 134 170 200 125 158 197 150 111 49 94 138 154 202 186 175 182 117 141 167 206 192 160 176 142 98 106 136 142 167 137 188 194 152 135 113 69 130 102 162 132 94 92 144 99 76 99 129 110 108 125 173 123 99 153 208 171 124 95 96 117 122 
162 167 183 93 150 190 137 152 195 184 135 123 115 177 173 102 146 158 131 111 150 134 129 94 141 147 103 88 119 109 145 131 152 174 174 189 123 126 73 146 185 136 127 93 105 101 104 155 96 129 120 136 162 120 115 145 112 124 196 192 111 156 149 109 
160 175 175 115 156 168 136 130 162 165 115 148 134 176 199 131 163 160 128 149 129 102 87 66 107 166 119 82 96 116 63 149 150 178 164 189 136 97 104 124 188 133 118 82 106 86 155 145 124 108 88 144 192 127 123 163 128 93 167 180 135 131 187 151 
82 120 113 184 171 168 169 183 156 127 51 129 122 158 195 196 134 110 87 125 124 161 113 100 104 123 106 74 137 134 37 141 161 108 90 100 83 130 132 150 134 129 144 121 102 123 171 154 164 158 189 192 171 178 130 76 138 144 179 128 59 139 160 157 
66 65 106 142 144 156 165 126 113 151 123 129 133 139 183 206 154 133 113 103 132 127 121 105 105 97 94 81 143 123 94 145 165 117 123 60 107 105 115 134 114 146 130 137 148 164 168 175 154 184 155 126 133 141 152 123 182 168 135 118 132 141 133 139 
54 104 108 109 109 141 96 107 147 151 149 110 165 165 161 131 198 150 187 139 208 101 116 149 143 163 80 67 170 149 162 123 118 156 120 85 127 126 138 140 165 166 170 123 103 93 159 193 144 173 195 99 81 80 89 137 151 162 94 115 173 158 128 209 
127 161 138 135 118 111 108 158 180 109 85 165 189 148 162 120 100 119 162 165 135 140 99 132 149 76 89 91 120 133 116 156 165 140 152 173 146 179 144 129 82 140 175 121 107 75 132 106 98 141 204 144 94 125 91 108 170 172 166 140 146 132 124 171 
156 170 175 133 123 108 136 147 168 167 124 176 170 124 146 99 85 105 136 131 113 105 118 105 98 107 103 131 121 127 160 153 132 105 129 187 198 172 96 105 64 102 132 119 107 107 122 123 82 135 160 111 116 115 116 103 125 181 151 136 147 136 128 172 
168 123 104 96 99 73 149 159 158 203 201 156 102 113 136 128 109 105 96 88 61 150 179 101 93 101 179 177 118 147 186 135 111 172 183 133 174 169 126 159 170 125 106 65 89 145 148 168 137 144 171 149 125 140 150 183 151 140 110 119 146 183 159 108 
134 95 88 108 114 118 133 162 167 139 178 104 116 121 128 145 144 131 111 148 112 125 180 94 79 112 177 171 76 129 176 126 114 156 122 140 149 169 111 166 178 121 160 108 119 148 112 143 140 155 174 177 160 166 115 166 173 178 114 122 141 153 119 97 
112 71 105 140 163 127 117 77 130 90 125 109 106 114 144 124 127 141 136 171 165 162 170 79 56 111 95 131 111 122 103 130 140 87 121 164 96 117 108 105 86 160 203 174 168 130 106 127 166 144 148 135 128 58 74 79 119 147 135 138 66 74 127 129 
98 104 147 159 132 138 138 80 132 163 138 98 88 102 104 171 137 159 144 123 119 132 123 139 134 112 131 135 99 141 167 163 130 96 108 119 117 134 93 131 112 144 138 142 99 110 135 118 119 105 117 129 126 119 138 144 133 154 150 141 135 148 112 142 
135 141 136 118 152 174 128 112 162 166 214 112 82 97 115 162 130 149 101 155 145 94 77 163 154 117 95 110 75 130 179 175 170 124 92 98 124 168 150 155 151 129 117 68 118 148 130 114 108 97 116 114 152 146 123 172 143 130 159 174 200 132 113 158 
101 130 152 107 93 137 129 97 79 112 176 128 106 134 119 107 146 185 157 148 98 131 123 178 161 137 112 101 85 101 79 134 152 126 145 125 114 118 156 131 160 153 153 154 156 171 170 170 140 137 153 112 71 156 154 82 107 107 173 168 167 108 106 115 
68 129 163 165 119 134 125 122 106 98 172 110 125 147 156 155 151 163 142 132 150 88 125 162 137 122 139 127 103 88 126 123 147 161 160 96 133 132 117 111 119 187 197 186 148 169 171 169 113 151 148 115 108 159 110 116 73 94 153 141 113 115 121 147 
137 136 113 162 194 157 102 118 168 170 201 99 103 190 183 158 156 108 107 122 134 113 55 127 153 112 85 107 98 153 200 194 203 185 204 165 212 173 88 98 140 188 166 186 222 216 153 118 106 157 176 201 177 101 113 113 49 34 93 93 92 153 200 174 
169 130 141 182 139 106 108 85 155 158 202 139 106 182 187 164 150 135 160 127 100 113 170 162 132 149 148 115 106 160 103 108 124 171 139 146 128 126 107 110 127 187 202 203 178 157 135 112 151 155 120 135 125 73 117 153 94 70 103 115 160 140 139 172 
178 177 138 169 159 75 77 97 166 170 174 149 120 162 167 145 158 176 158 145 125 152 148 116 143 183 145 129 151 130 63 60 106 143 109 93 109 94 77 133 162 162 160 197 168 74 85 118 150 141 105 95 108 76 123 185 145 97 117 136 183 127 115 148 
132 176 141 153 158 72 144 194 186 145 93 115 107 108 164 93 127 116 113 107 107 124 149 128 133 123 107 107 164 172 175 126 112 105 147 177 147 132 128 123 88 80 88 138 124 122 93 102 114 133 128 149 130 132 138 163 160 160 206 169 121 132 151 102 
143 184 165 188 171 111 134 158 185 127 126 129 109 149 114 99 101 84 123 85 69 161 174 166 153 113 138 150 210 169 142 161 133 121 96 124 113 150 162 155 115 109 125 134 132 161 96 137 129 128 149 179 149 145 124 158 124 129 166 159 69 112 143 91 
192 184 162 168 208 197 98 103 123 181 185 142 164 86 93 86 55 85 133 139 114 181 163 177 183 173 159 194 206 148 124 116 151 187 144 70 126 132 177 156 66 144 180 170 157 156 131 155 165 169 140 155 175 103 109 113 138 92 136 151 54 56 85 128 
112 191 195 162 165 79 152 134 117 133 127 131 133 138 166 181 126 156 121 112 55 138 190 184 149 146 130 129 181 180 163 142 99 141 95 77 143 151 179 147 83 163 198 171 131 100 161 143 152 156 142 128 142 137 85 66 106 142 146 117 58 93 145 161 
148 149 165 132 97 91 169 186 138 144 139 105 100 138 130 180 201 196 86 72 67 133 161 187 203 184 133 123 152 166 186 98 89 108 108 106 162 180 167 127 83 153 165 164 154 49 123 185 172 132 92 145 133 130 71 75 134 140 98 101 88 131 141 197 
107 105 103 139 164 168 100 116 95 118 134 126 152 79 79 79 69 125 181 202 185 180 164 174 146 114 88 116 160 175 191 115 124 71 112 143 147 147 97 106 81 116 128 165 149 70 126 163 113 69 73 109 123 111 115 111 117 97 102 126 119 147 171 198 
81 133 119 136 159 160 113 94 108 102 131 116 155 83 109 82 89 118 191 189 182 186 123 150 143 124 76 112 168 116 114 158 171 76 120 136 120 123 100 119 100 126 105 173 184 71 151 140 100 84 113 129 127 138 138 171 131 151 166 167 127 156 167 173 
103 160 178 159 163 153 122 86 107 89 157 128 72 82 99 87 180 178 186 201 176 157 69 117 163 162 130 106 126 97 80 153 179 115 68 93 176 156 80 122 211 165 86 198 151 135 131 185 108 172 151 166 100 98 120 158 190 138 129 150 144 152 157 192 
111 199 180 150 130 77 124 155 108 118 178 93 85 127 141 132 184 191 105 69 124 152 146 167 173 141 121 119 170 112 130 137 123 134 91 113 145 162 146 112 118 157 170 202 170 75 168 215 198 132 118 149 138 82 60 94 114 159 126 132 130 130 148 178 
131 188 171 133 110 96 117 157 106 133 133 115 86 151 163 189 196 179 74 63 64 134 175 201 197 167 132 128 174 156 114 86 80 92 118 107 168 182 169 129 111 127 202 169 153 107 143 182 190 153 85 145 118 113 116 92 105 135 115 82 72 142 163 174 
91 119 132 145 135 112 125 92 81 120 172 133 100 110 157 149 134 92 148 163 109 170 197 149 174 160 124 135 168 194 95 111 94 154 157 170 149 154 124 138 124 160 179 179 199 128 137 108 139 139 174 119 111 154 166 95 128 112 103 114 131 112 138 100 
126 85 134 147 142 81 98 103 114 127 145 160 132 118 117 185 142 110 167 184 135 159 197 150 167 143 108 118 168 144 91 103 98 142 147 205 146 131 132 102 107 148 141 183 191 133 119 115 126 114 195 156 133 172 158 182 118 103 117 112 163 150 132 93 
177 155 161 179 129 65 124 107 166 162 90 155 193 157 134 180 134 130 146 182 196 132 151 149 144 97 130 119 148 108 100 89 81 119 96 199 178 145 59 55 105 97 92 187 169 106 108 112 77 143 218 215 158 198 188 129 85 71 78 147 167 196 205 154 
141 122 143 177 149 126 125 142 130 141 83 145 143 121 113 139 105 85 185 159 165 184 179 102 126 110 138 129 146 144 57 43 103 161 139 144 121 113 126 149 107 100 157 117 159 170 127 128 120 137 122 162 190 167 152 122 163 124 182 181 164 126 147 151 
187 141 146 200 158 148 137 117 85 96 103 148 158 112 117 106 100 109 156 144 170 182 191 114 90 103 161 131 87 109 122 84 89 160 168 126 117 114 165 134 104 148 158 110 123 166 152 139 149 145 139 188 218 138 116 63 121 147 145 180 135 152 131 136 
108 112 106 125 130 179 136 135 140 162 147 155 143 183 183 118 161 150 105 117 188 137 101 119 157 188 143 110 124 111 102 163 146 138 148 157 146 137 221 174 139 138 64 169 140 114 124 133 104 122 153 201 199 199 157 102 70 80 150 184 169 167 140 119 
102 82 112 132 170 180 146 136 137 126 164 155 195 193 161 146 160 163 96 115 201 115 92 125 154 128 120 104 113 98 100 174 156 117 100 138 170 171 186 173 105 73 75 175 129 141 77 96 74 100 162 155 159 175 174 125 100 85 165 148 164 177 170 119 
128 75 76 148 151 160 145 94 186 159 122 193 175 156 130 109 167 161 111 167 241 199 156 150 117 127 99 90 149 164 97 84 72 91 95 197 172 193 200 167 89 115 80 183 117 144 103 100 78 122 187 124 83 114 124 175 118 118 139 127 87 181 154 112 
107 121 69 156 176 176 142 159 144 102 70 180 187 140 126 114 80 109 149 172 109 129 126 169 163 84 124 116 122 121 130 140 164 164 161 166 158 198 171 138 54 125 177 171 132 89 122 128 132 148 196 180 154 152 126 122 153 129 174 152 102 167 179 153 
104 94 107 173 185 137 175 178 107 96 99 159 174 102 83 107 86 88 144 158 113 90 104 175 122 100 137 169 112 134 196 156 135 172 186 143 175 164 123 81 90 156 156 147 153 124 153 153 159 164 157 177 166 140 161 113 133 161 174 152 141 146 148 141 
129 176 153 182 146 137 105 121 129 138 103 99 105 55 117 180 125 100 110 138 181 97 114 169 151 83 149 194 147 150 165 151 127 185 161 132 101 88 154 175 174 153 162 166 146 130 130 165 185 157 149 123 142 152 163 170 121 103 170 136 136 131 119 96 
187 157 166 172 135 99 92 119 143 140 156 149 132 102 119 155 122 92 108 125 187 100 116 158 128 111 151 167 155 153 191 166 138 182 183 93 75 105 193 187 191 143 149 131 126 109 155 158 155 135 143 79 92 81 122 143 105 119 159 162 143 154 146 126 
203 201 160 98 106 151 153 168 81 120 156 200 155 120 142 134 149 90 94 121 134 117 101 107 105 122 189 191 194 195 195 164 204 170 144 35 120 162 203 199 218 220 162 72 92 125 140 155 153 149 69 133 106 40 103 113 90 82 168 161 116 156 189 177 
161 175 153 122 165 161 104 126 74 83 147 180 150 85 106 165 125 123 140 165 159 140 138 164 134 127 178 177 163 137 162 116 130 134 151 128 116 135 133 123 89 174 178 158 162 197 154 120 138 144 145 122 79 97 64 54 120 165 159 104 107 175 147 95 
124 160 184 165 150 157 122 88 60 88 164 185 154 113 149 134 131 111 194 176 148 108 113 186 178 102 178 188 145 129 160 85 98 64 107 144 96 88 114 96 126 161 159 159 179 201 112 104 90 132 148 144 107 114 110 70 150 179 90 88 119 163 166 113 
83 157 157 201 195 166 191 167 95 101 118 159 147 172 170 127 132 88 74 96 148 109 109 181 177 161 152 147 178 160 202 139 152 167 151 179 99 70 108 108 204 153 106 167 177 170 148 140 112 113 133 156 161 128 140 115 127 112 89 126 144 122 88 85 
78 171 189 179 191 186 144 133 127 121 75 166 169 188 171 99 111 75 90 95 120 120 125 179 175 182 146 182 195 183 122 154 173 135 128 122 98 75 127 152 203 161 130 163 121 125 145 148 154 167 157 174 149 164 145 140 119 73 105 131 167 116 104 117 
188 192 178 163 112 196 116 84 174 128 106 112 111 208 183 172 125 96 115 170 189 160 104 156 154 125 155 162 121 136 83 158 194 133 150 177 64 83 113 172 191 204 185 93 76 62 125 174 193 153 154 160 116 145 158 152 66 55 126 134 145 168 140 191 
184 148 130 174 128 131 136 140 103 127 93 114 170 173 158 105 107 136 107 153 210 195 178 161 118 173 174 178 159 137 145 157 116 70 80 82 137 144 121 139 116 136 131 117 151 108 179 193 124 145 164 154 153 114 137 94 71 75 169 127 100 106 132 144 
161 151 112 188 143 137 162 172 103 114 103 104 171 155 139 92 125 174 108 140 195 192 170 139 141 193 158 153 171 174 164 139 128 60 95 67 149 159 109 103 105 95 93 133 189 172 200 200 123 127 113 148 160 118 116 88 75 89 188 154 93 92 106 170 
102 169 178 191 119 160 145 134 163 146 120 86 84 162 174 145 148 150 133 125 116 158 153 148 184 159 133 124 172 164 174 120 133 137 154 131 105 119 111 109 138 154 108 95 86 116 94 113 134 101 100 159 165 164 150 105 130 153 194 159 90 103 95 161 
