P2
64 64
255
217 169 144 112 139 120 110 136 161 138 108 88 72 82 124 195 215 219 223 194 191 177 129 82 53 46 41 59 110 167 203 210 195 174 193 225 199 182 138 131 131 139 159 153 170 176 159 149 107 83 92 57 76 79 108 116 146 148 177 202 208 204 209 194 
171 146 135 130 121 121 150 153 126 97 84 97 116 127 128 147 152 176 172 189 170 142 129 94 95 89 101 91 100 135 170 148 162 190 156 154 179 182 157 143 138 115 133 166 180 173 167 145 132 109 81 118 115 113 101 95 129 161 164 181 206 159 154 174 
149 133 116 126 134 133 154 153 131 106 107 111 140 133 141 125 125 119 120 113 121 124 129 126 129 133 123 128 117 117 126 119 110 158 151 145 144 161 176 147 139 122 119 166 165 178 151 164 157 127 146 161 172 164 148 113 123 137 130 137 171 134 116 101 
130 143 131 105 115 132 180 183 167 144 137 130 134 106 138 126 107 93 77 88 81 92 132 171 154 155 130 121 131 130 107 114 128 117 126 144 128 130 114 125 139 132 124 144 151 145 168 175 183 188 200 166 174 181 183 163 115 108 120 130 145 155 125 67 
149 131 131 109 121 150 161 175 168 136 124 137 122 126 112 128 101 102 95 85 118 94 116 159 152 137 122 129 139 116 121 127 134 130 125 118 130 128 117 123 136 134 144 145 156 151 153 165 161 175 177 155 165 181 175 184 143 113 130 137 140 133 121 90 
142 153 130 128 146 153 144 148 165 133 86 132 165 131 132 117 102 114 111 112 110 113 123 116 107 121 119 102 114 138 166 145 146 155 148 110 141 139 140 148 118 151 149 145 145 121 164 173 151 149 164 164 155 165 189 176 163 154 135 137 167 150 134 158 
146 162 182 158 171 178 130 126 139 125 117 127 156 143 149 154 148 136 140 161 142 139 125 122 120 90 57 59 131 154 149 168 157 154 142 140 113 123 139 149 127 139 126 146 156 182 195 200 163 157 176 137 140 113 128 147 163 175 181 149 146 136 155 188 
147 163 175 162 180 183 146 126 133 129 128 136 157 148 160 169 153 161 155 154 163 154 117 113 100 83 56 47 116 162 139 147 159 162 162 140 118 131 154 165 129 128 120 139 154 185 189 202 158 158 177 150 138 96 121 135 182 181 169 159 148 116 153 203 
181 166 148 146 158 130 124 143 137 134 146 119 122 126 141 169 153 147 125 102 119 135 138 103 92 80 90 81 73 133 150 141 138 169 151 131 139 125 124 154 191 151 123 114 124 176 177 173 166 157 150 154 134 149 151 189 183 182 148 135 165 162 171 161 
150 144 146 130 120 72 100 129 120 117 132 109 95 96 117 128 167 145 116 92 66 112 141 154 141 115 97 87 74 104 96 108 108 143 127 132 123 127 125 134 150 131 113 93 120 151 142 159 149 158 165 174 166 169 159 159 165 172 147 151 186 191 178 151 
128 156 151 107 103 77 96 109 127 133 136 110 107 80 114 149 174 182 142 94 64 102 138 187 167 126 74 73 85 74 90 77 102 113 135 115 122 106 111 100 105 89 113 123 138 152 126 145 115 147 160 186 172 158 141 154 144 162 161 174 202 170 155 148 
129 147 137 140 131 80 101 107 99 131 132 117 95 95 108 144 167 171 154 97 68 105 133 167 140 106 65 59 72 93 105 108 132 113 103 113 118 111 132 119 100 102 120 114 124 159 139 167 145 160 169 133 142 129 143 164 186 174 163 159 143 150 172 160 
102 105 127 160 151 102 90 103 120 146 164 156 100 121 99 141 146 151 147 134 144 143 138 151 140 101 74 59 89 99 129 133 150 138 135 124 125 120 144 127 98 105 117 98 141 182 175 171 181 150 142 110 96 83 100 156 191 179 166 149 117 133 152 140 
89 106 117 151 137 92 80 95 123 171 194 178 145 122 107 122 133 136 159 160 145 155 138 156 134 87 95 107 109 132 139 133 154 185 181 163 154 138 117 140 121 122 134 136 136 155 174 173 150 148 134 119 105 60 68 114 173 161 163 145 97 111 113 121 
97 121 121 146 124 114 84 92 130 172 174 162 141 123 112 110 143 146 160 181 171 170 157 163 141 106 81 105 108 145 154 132 149 176 169 150 143 117 121 118 125 113 140 154 125 123 164 173 146 142 135 110 106 86 87 107 165 166 176 161 90 103 102 116 
127 145 170 123 136 137 85 98 136 137 129 96 116 135 145 176 177 175 190 172 192 191 179 149 130 129 103 81 102 140 155 165 144 165 165 134 115 101 75 101 85 128 139 139 138 158 129 113 117 120 104 106 121 149 125 114 143 171 158 140 130 125 122 115 
174 162 141 74 100 120 95 102 129 129 108 114 134 182 182 150 175 182 176 176 201 173 132 85 106 112 90 85 120 142 173 153 139 133 130 133 96 95 61 85 99 98 140 157 157 125 98 114 88 108 105 126 165 163 154 142 96 97 155 183 159 166 134 92 
177 167 134 80 100 109 95 94 111 113 89 121 145 189 203 171 188 188 178 196 189 157 109 68 88 121 101 85 111 148 136 164 137 130 120 130 101 80 73 69 96 92 135 155 161 116 115 102 96 94 88 132 186 176 168 152 99 74 138 179 174 156 151 108 
125 139 122 149 140 128 120 125 108 89 48 105 138 181 202 203 172 160 151 170 171 175 125 99 99 111 104 90 137 157 119 163 158 120 109 109 93 115 103 95 79 98 145 165 153 140 142 128 131 125 140 155 173 196 166 113 117 114 147 141 117 144 130 109 
102 109 143 173 169 151 130 103 88 93 74 97 139 172 197 207 179 169 154 142 152 144 134 120 118 114 112 105 146 150 143 169 181 158 159 118 131 128 117 106 85 116 136 160 167 170 167 167 147 146 125 122 148 169 172 142 155 145 129 121 128 124 106 98 
87 126 156 179 172 155 101 96 104 90 83 83 153 186 186 170 201 176 185 149 178 125 133 150 146 153 109 103 163 163 174 159 168 194 174 145 155 149 138 118 118 129 153 147 139 137 176 191 151 145 147 108 119 135 138 152 150 152 110 110 135 122 98 130 
112 142 156 174 163 139 117 136 132 77 54 114 170 181 189 164 149 157 172 163 144 145 122 136 145 111 119 121 141 155 151 175 188 182 185 183 158 170 138 112 80 118 153 139 135 124 158 145 125 126 145 122 114 141 124 126 150 149 145 128 129 119 109 127 
102 119 143 138 136 133 153 157 146 117 82 128 166 174 185 152 137 145 157 149 138 130 126 112 112 127 136 153 150 155 173 173 165 155 164 180 172 155 109 102 77 99 124 123 121 130 147 147 109 110 112 90 99 104 105 99 112 141 135 137 148 143 139 161 
89 75 84 94 103 115 175 184 157 144 126 125 137 173 184 167 145 139 135 130 117 153 153 103 102 124 180 184 154 168 188 162 150 182 184 145 151 145 120 131 133 112 105 86 102 143 155 166 130 106 107 97 84 93 100 123 112 110 111 137 162 183 175 154 
72 61 72 94 104 130 163 181 158 110 114 97 144 178 180 175 161 151 142 162 143 144 157 104 100 134 183 184 134 158 179 155 150 172 151 149 142 149 112 131 134 108 129 107 115 143 138 155 132 112 109 112 108 114 89 119 128 132 116 141 159 168 153 144 
67 49 70 92 110 114 133 118 124 78 82 95 136 173 188 164 152 154 155 178 176 172 172 121 112 151 154 174 154 147 130 147 155 133 150 168 130 139 116 90 70 112 142 135 139 136 144 157 153 111 97 101 117 98 107 106 123 136 139 152 121 123 145 141 
64 64 81 83 76 100 122 97 109 105 83 85 125 166 167 184 153 162 160 157 158 166 165 175 173 169 183 186 151 148 150 153 144 132 140 151 154 163 113 93 64 87 101 116 102 131 167 163 138 95 84 108 143 166 176 167 151 159 159 156 154 153 123 127 
85 85 76 62 84 116 112 108 121 106 122 93 121 161 170 181 151 157 138 173 172 148 145 191 187 174 169 176 140 142 155 156 161 144 131 141 162 183 143 103 81 79 91 80 113 152 166 163 135 93 85 104 161 188 176 188 162 152 166 174 187 144 120 131 
73 92 111 96 90 121 125 110 94 104 132 118 131 162 156 150 170 189 170 158 130 145 139 164 161 164 168 166 145 136 116 144 156 143 154 148 148 150 147 106 107 112 126 139 145 173 192 195 159 131 125 112 111 167 166 129 140 141 175 173 173 136 117 108 
62 107 154 176 152 150 138 134 128 128 167 133 138 146 155 171 188 197 167 135 131 95 102 112 108 131 171 172 155 140 155 152 155 157 157 126 147 146 131 117 115 155 172 175 160 183 198 198 157 158 149 127 115 134 112 128 120 135 166 163 150 142 126 124 
101 118 146 201 214 178 134 138 170 179 200 141 125 155 158 172 197 177 150 123 111 92 49 72 94 112 138 159 154 178 202 193 186 168 175 157 182 162 117 120 141 168 167 186 206 213 192 176 160 173 176 178 142 87 98 118 106 104 136 141 142 163 167 138 
130 125 162 207 183 146 128 112 157 172 201 161 128 153 161 176 192 190 179 133 103 102 115 99 92 136 173 165 154 175 143 144 148 170 153 154 140 138 126 126 133 164 174 178 169 164 161 151 169 168 150 145 115 70 94 130 116 108 128 139 162 147 138 148 
162 170 167 194 183 117 93 98 150 176 190 169 137 144 152 164 195 210 184 156 135 141 123 96 115 165 177 175 173 143 102 108 146 176 158 137 131 121 111 137 150 145 134 144 129 86 94 112 141 156 147 127 103 64 88 129 119 98 109 121 145 124 131 158 
159 185 172 181 177 106 112 132 151 162 151 154 132 119 151 138 179 178 165 148 141 141 138 116 123 143 161 165 175 154 142 132 153 172 190 186 152 140 136 131 113 100 82 91 83 82 66 73 104 147 161 155 112 87 88 105 109 110 134 118 94 114 154 151 
160 182 175 189 175 124 115 123 156 154 168 162 136 144 130 142 162 157 165 131 115 155 148 135 134 138 176 186 199 156 131 154 163 175 160 153 128 142 149 147 129 116 102 91 87 100 66 87 107 140 166 166 119 94 82 106 96 99 116 109 63 101 149 147 
153 150 138 142 164 167 126 132 150 190 197 172 173 128 133 138 130 145 151 132 109 141 130 134 143 163 178 202 202 165 150 146 165 185 160 101 106 105 141 146 110 141 140 123 113 104 83 95 119 144 142 140 127 75 80 99 127 107 114 103 45 64 116 164 
82 120 120 102 113 109 184 184 171 173 168 169 169 170 183 187 156 168 127 94 51 96 129 133 122 142 158 164 195 201 196 176 134 140 110 79 87 87 125 141 124 157 161 138 113 83 100 88 104 122 123 110 106 94 74 91 137 160 134 84 37 75 141 180 
92 90 96 78 71 114 198 217 187 180 173 156 154 172 166 185 190 183 105 67 50 88 113 133 148 161 158 159 181 198 214 157 128 119 111 88 92 97 117 131 127 155 147 138 128 61 83 110 114 107 94 116 100 90 67 98 157 164 114 77 52 93 138 195 
66 66 65 84 106 142 142 158 144 151 156 152 165 128 126 123 113 137 151 142 123 126 129 141 133 134 139 157 183 196 206 162 154 118 133 130 113 111 103 132 132 140 127 132 121 80 105 124 105 92 97 106 94 73 81 110 143 139 123 110 94 117 145 171 
48 76 74 87 105 124 118 115 123 121 136 129 146 110 122 107 109 122 155 149 142 149 127 148 147 148 135 156 183 156 154 177 188 143 163 159 139 139 134 153 150 149 112 126 135 92 145 144 125 119 134 127 94 75 82 131 144 162 165 159 135 143 133 125 
54 87 104 101 108 113 109 94 109 105 141 125 96 99 107 101 147 145 151 161 149 144 110 140 165 172 165 154 161 141 131 173 198 175 150 153 187 175 139 162 208 170 101 135 116 129 149 182 143 174 163 151 80 50 67 121 170 152 149 164 162 150 123 117 
78 127 126 117 109 89 119 137 113 116 145 104 104 128 134 131 157 160 115 95 120 140 149 168 173 161 154 154 174 140 146 153 153 164 142 150 163 173 165 150 153 160 137 131 119 93 159 189 177 138 128 130 99 51 46 92 129 159 145 152 151 141 129 127 
127 160 161 150 138 127 135 153 118 118 111 110 108 151 158 174 180 171 109 92 85 129 165 191 189 170 148 146 162 145 120 104 100 104 119 124 162 171 165 144 135 130 140 104 99 94 132 155 149 117 76 105 89 85 91 97 120 141 133 120 116 150 156 159 
137 155 173 186 179 157 152 132 109 107 123 113 118 140 165 166 161 139 153 141 105 144 177 169 180 164 136 138 148 151 96 100 83 105 111 135 143 149 133 138 130 135 120 100 112 95 116 105 105 86 95 74 86 119 128 104 129 124 121 131 142 136 158 147 
156 139 170 179 175 136 133 132 123 109 108 127 136 146 147 184 168 152 167 158 124 143 176 163 170 150 124 127 146 128 99 99 85 99 105 150 136 134 131 113 113 125 105 112 118 101 105 105 98 74 107 97 103 136 131 147 121 115 127 131 160 156 153 139 
184 166 157 157 132 95 121 111 132 119 78 123 170 172 162 190 168 166 169 183 185 148 148 140 135 108 123 116 137 126 126 112 87 91 82 141 138 124 74 65 87 88 98 155 146 103 96 94 72 99 133 143 139 178 170 128 91 82 100 156 175 184 177 144 
168 143 123 119 104 95 96 106 99 102 73 119 149 160 159 174 158 148 203 196 201 193 156 91 102 95 113 111 136 159 128 107 109 118 105 107 96 90 88 88 61 79 150 163 179 153 101 94 93 105 101 135 179 190 177 130 118 92 147 180 186 153 135 116 
189 149 119 120 98 98 96 87 74 80 84 121 156 155 160 156 155 161 189 191 208 194 159 91 78 89 122 110 108 144 164 132 105 120 122 98 90 86 103 77 55 102 157 171 170 156 112 96 107 112 112 153 199 182 164 100 95 101 125 179 175 166 123 102 
134 123 95 84 88 121 108 111 114 125 118 127 133 161 162 138 167 163 139 143 178 141 104 97 116 137 121 107 128 140 145 168 144 129 131 125 111 103 148 128 112 128 125 203 180 128 94 89 79 93 112 150 177 198 171 118 76 75 129 171 176 162 126 98 
110 91 92 90 113 133 131 131 130 122 142 131 138 126 112 119 140 144 101 96 132 91 84 103 120 116 119 114 126 125 131 169 162 144 132 133 132 128 152 168 147 136 149 209 177 140 67 66 57 72 105 114 142 167 164 125 99 87 137 138 152 153 139 105 
112 81 71 100 105 129 140 119 163 148 127 151 117 87 77 84 130 129 90 98 125 112 109 119 106 119 114 112 144 156 124 122 127 145 141 170 136 143 171 187 165 178 162 215 170 142 79 65 56 79 111 93 95 127 131 148 111 109 122 121 103 147 130 106 
100 105 74 113 126 142 139 152 145 125 109 151 130 87 85 97 101 120 127 125 85 97 99 123 122 89 116 114 124 130 139 148 165 169 166 151 131 148 154 162 131 166 188 183 155 109 99 95 95 100 121 122 129 142 128 115 123 109 140 142 124 153 154 137 
98 93 104 138 147 132 159 163 132 133 138 155 138 85 80 117 132 139 163 164 138 115 98 115 88 80 102 122 104 132 171 150 137 153 159 132 144 137 123 110 119 145 132 118 123 117 139 141 134 122 112 127 131 127 135 100 99 112 141 159 167 167 163 154 
108 137 135 156 140 139 127 136 148 161 150 136 116 73 109 171 173 168 173 189 211 146 111 103 92 60 94 118 112 135 154 144 122 144 133 120 108 103 133 140 137 117 102 88 86 112 147 171 166 130 116 105 118 125 128 120 84 75 139 164 185 178 166 148 
135 125 141 153 136 120 118 133 152 160 174 159 128 98 112 154 162 153 166 181 214 149 112 99 82 75 97 106 115 134 162 147 130 149 149 106 101 116 155 145 145 111 94 71 77 104 163 172 154 123 117 86 95 93 110 108 75 81 130 170 179 183 175 161 
132 140 137 118 121 142 140 146 108 135 157 172 136 108 120 120 134 107 124 158 175 150 107 84 83 92 128 130 135 141 143 137 172 168 155 100 142 161 172 157 160 155 112 56 74 123 163 177 161 139 88 123 113 84 111 98 70 63 120 136 124 150 175 177 
101 119 130 131 152 142 107 115 93 103 137 150 129 91 97 113 79 77 112 160 176 153 128 123 106 107 134 133 119 99 107 102 146 176 185 168 157 163 148 124 98 137 131 115 123 169 178 167 161 146 137 128 112 123 101 75 85 103 101 75 79 124 134 125 
82 110 145 152 145 140 114 96 85 102 143 151 129 104 118 93 74 62 133 161 167 137 116 136 131 98 139 144 113 93 103 86 132 145 167 181 151 144 141 112 118 130 123 118 135 174 157 160 139 141 141 141 127 133 126 85 102 111 65 61 76 112 139 133 
68 114 129 164 163 150 165 154 119 125 134 146 125 124 122 103 106 86 98 133 172 138 110 125 125 134 147 148 156 139 155 130 151 169 163 180 142 128 132 113 150 122 88 112 125 147 162 164 137 121 122 134 139 123 127 106 103 93 88 113 126 123 123 134 
77 128 143 144 155 170 164 162 159 154 131 162 133 119 115 106 138 129 141 149 164 145 113 113 117 156 173 199 201 190 157 162 150 116 115 128 129 122 133 128 143 117 91 99 84 111 144 150 142 132 119 127 112 117 110 117 115 97 127 160 187 162 162 172 
137 140 136 132 113 177 162 151 194 169 157 140 102 123 118 152 168 163 170 192 201 167 99 95 103 131 190 204 183 186 158 175 156 96 108 142 107 120 122 134 134 134 113 58 55 71 127 155 153 118 112 112 85 96 107 123 98 99 153 181 200 210 194 218 
151 132 121 142 125 147 171 177 152 156 134 127 124 102 102 115 154 179 163 183 211 184 138 101 89 156 196 208 194 176 177 171 125 85 90 105 146 153 127 119 100 108 101 91 112 103 152 162 124 130 135 126 118 92 107 99 101 108 166 159 153 155 167 172 
169 158 130 160 141 154 182 189 139 122 106 96 108 85 85 100 155 190 158 174 202 184 139 97 106 165 182 188 187 175 164 154 150 117 135 120 160 164 127 107 100 101 113 143 170 154 162 159 132 148 149 158 148 116 115 106 106 114 160 136 103 103 108 139 
161 186 175 170 136 169 173 168 159 118 89 67 53 83 99 122 160 171 166 166 163 168 134 107 131 148 164 167 177 156 153 137 165 185 191 169 144 147 131 114 120 141 144 157 149 142 107 112 144 156 170 190 172 155 147 124 135 144 150 112 67 73 68 101 
