P2
64 64
255
217 112 110 138 72 195 223 177 53 59 203 174 199 131 159 176 107 57 108 148 208 194 98 176 184 125 148 154 143 61 155 124 96 133 81 121 128 165 193 208 196 179 181 78 145 136 163 169 148 110 130 144 188 141 63 77 69 122 65 144 150 169 170 190 
130 105 180 144 134 126 77 92 154 121 107 117 128 125 124 145 183 166 183 108 145 67 179 109 112 159 159 127 78 148 181 140 157 129 182 177 90 100 168 120 127 94 133 201 159 141 68 67 159 194 200 119 180 173 93 103 102 135 174 176 103 179 178 86 
146 158 130 125 156 154 140 139 120 59 149 154 113 149 126 182 163 137 128 175 146 188 145 165 96 78 109 139 87 105 111 151 182 192 134 128 131 124 101 98 104 193 105 124 152 109 122 155 118 211 139 172 121 180 133 78 106 152 168 164 152 146 162 152 
150 130 100 117 95 128 116 112 141 87 96 143 123 134 113 151 149 174 159 172 186 151 154 101 139 131 94 98 148 149 100 131 92 140 119 133 153 176 128 116 164 141 172 79 114 123 168 157 76 193 148 194 144 143 171 138 119 196 132 146 121 53 182 153 
102 160 90 146 100 141 147 143 140 59 129 138 125 127 117 182 181 110 100 179 117 140 112 125 137 152 122 68 96 168 179 183 110 150 109 155 126 120 138 176 179 114 156 142 127 156 195 168 115 182 106 77 117 104 121 153 134 188 144 186 145 142 108 138 
127 123 85 137 116 176 190 191 130 81 155 165 115 101 139 158 117 106 125 171 130 115 146 119 172 136 162 130 98 127 164 168 130 146 144 157 163 156 112 120 206 96 169 156 154 137 175 138 98 162 39 96 119 115 112 114 168 175 176 162 208 145 66 122 
125 149 120 89 138 203 151 175 99 90 119 120 93 95 145 140 131 155 166 114 117 109 162 136 133 148 139 137 104 72 172 167 143 163 176 148 137 128 152 88 164 183 100 152 115 157 96 90 153 172 118 134 83 137 137 146 155 128 146 163 155 78 93 112 
112 174 117 77 170 164 172 145 145 121 151 182 158 112 153 124 125 122 124 149 129 127 132 114 98 87 112 79 96 142 161 169 121 182 169 126 87 119 140 136 138 117 124 112 140 136 111 105 151 178 94 110 163 145 147 99 93 87 163 158 125 129 152 143 
72 94 163 110 144 175 142 144 100 184 179 172 142 131 129 143 132 112 89 132 159 144 105 121 124 119 126 78 105 74 195 128 181 142 100 75 105 183 155 160 80 122 112 80 129 115 148 151 92 175 80 95 100 126 125 168 117 138 145 175 182 149 173 151 
85 62 112 106 121 181 138 148 187 176 155 144 162 103 91 152 135 104 176 152 187 131 160 139 187 111 134 115 129 140 110 106 91 184 136 125 102 131 96 177 95 48 108 166 192 168 146 134 76 141 184 202 139 96 141 134 126 67 91 83 169 93 155 101 
101 201 134 179 125 172 150 92 94 159 202 168 182 120 167 213 160 178 98 104 142 138 188 153 135 75 130 142 132 48 144 59 99 112 108 160 123 118 208 166 95 106 122 128 160 80 98 65 151 82 67 72 160 182 151 126 144 172 147 128 98 67 128 150 
159 181 112 162 132 138 165 141 123 165 142 172 152 131 82 82 104 155 88 110 94 151 167 201 132 112 130 151 110 74 66 155 132 121 139 167 115 167 92 187 173 193 131 191 120 66 110 154 178 168 170 112 170 202 134 153 102 136 144 136 174 167 131 104 
82 102 184 173 169 187 127 96 122 164 196 140 87 141 161 83 104 110 74 160 37 180 108 113 83 121 150 130 144 112 123 157 164 179 192 162 130 104 144 166 59 163 157 112 131 113 109 108 126 171 171 168 146 168 123 176 121 102 84 142 154 96 132 115 
48 87 118 121 146 107 155 149 147 156 154 143 139 153 112 92 125 127 82 162 135 125 138 107 120 104 148 161 143 120 139 174 143 181 119 118 111 160 164 122 183 141 168 137 126 157 147 121 186 138 165 83 102 159 142 113 134 92 176 173 202 121 101 166 
127 150 135 118 108 174 109 129 189 146 120 104 162 144 140 94 149 105 91 141 116 159 140 172 146 158 129 103 175 118 75 109 98 176 144 102 91 138 172 143 146 141 171 151 154 116 109 99 136 147 98 132 139 125 132 177 111 142 173 129 151 52 137 131 
184 157 121 119 170 190 169 148 135 116 126 91 138 65 98 103 72 143 170 82 175 144 133 153 168 153 125 114 102 77 150 156 114 142 114 139 144 141 159 113 159 144 157 152 120 160 80 99 147 136 73 103 90 106 116 125 171 178 161 147 145 60 145 100 
134 84 108 125 133 138 139 141 116 107 145 129 111 128 125 128 79 150 171 75 176 98 156 128 149 164 166 134 160 88 148 138 140 164 177 152 115 158 178 102 141 147 98 155 169 143 163 139 162 118 91 127 109 127 131 141 168 118 106 180 157 109 62 126 
100 113 139 125 130 97 127 97 122 114 139 169 131 162 188 109 95 122 128 109 124 137 72 138 98 94 122 122 154 153 96 112 142 124 133 84 107 103 149 142 107 119 150 125 160 165 147 146 185 135 140 74 173 132 145 136 176 119 101 132 157 136 131 130 
135 153 118 160 128 154 166 149 82 106 162 149 101 145 94 104 154 86 110 81 179 161 124 102 124 152 155 149 117 90 148 124 108 84 114 132 123 156 130 161 200 118 158 117 136 134 88 140 186 125 69 128 156 151 129 118 145 196 122 55 178 114 173 98 
82 152 114 102 129 93 133 137 131 144 103 145 151 112 123 174 139 141 126 111 76 133 130 129 117 158 123 157 152 157 185 177 156 158 108 104 142 88 116 186 156 94 120 154 129 131 144 142 177 130 57 166 121 132 110 100 152 195 193 63 52 152 205 175 
137 132 162 169 102 152 170 167 103 204 158 96 107 134 113 71 153 112 107 99 200 218 185 188 212 121 98 159 166 181 216 118 106 171 201 117 113 75 34 120 92 182 174 163 195 166 154 165 156 184 77 94 177 77 143 188 143 154 76 145 187 177 107 155 
161 170 173 118 53 122 166 168 131 167 153 185 144 114 144 142 144 190 147 144 67 101 147 89 118 108 156 167 176 187 96 118 164 128 106 90 129 153 66 101 192 79 170 115 157 165 173 156 121 227 72 96 185 169 159 135 165 125 174 171 179 103 118 158 
132 135 153 126 144 164 145 106 107 145 93 117 113 99 124 113 133 113 107 157 175 136 105 174 147 145 123 105 88 145 122 91 114 128 149 127 138 145 160 199 121 158 102 164 119 99 160 170 136 111 150 171 135 121 122 181 146 125 91 179 129 129 86 124 
163 177 189 179 125 138 148 166 149 106 74 57 133 96 170 200 187 145 172 220 122 169 150 81 119 161 153 93 169 150 166 137 150 141 175 127 118 107 101 155 68 89 98 116 165 130 84 131 131 139 103 100 90 152 140 152 163 147 101 119 166 186 132 81 
112 208 162 121 152 127 133 137 133 150 181 150 121 87 138 185 149 140 129 190 163 99 141 88 143 191 147 116 198 155 100 159 152 150 128 121 85 60 142 136 58 130 161 164 170 164 169 142 79 156 132 158 178 130 139 140 179 143 105 93 99 155 109 128 
103 140 158 128 132 117 99 142 107 98 147 147 147 114 163 169 170 100 116 173 200 82 106 119 150 163 81 122 154 183 59 186 170 87 124 135 111 113 117 100 134 179 181 185 193 227 136 156 120 120 100 190 187 137 129 155 119 147 139 128 149 143 107 143 
81 123 136 172 113 93 102 113 155 81 82 115 191 191 186 113 143 111 112 155 114 171 76 144 120 111 119 132 105 200 71 152 100 105 129 127 138 145 151 157 127 162 173 163 152 184 161 152 157 157 89 137 152 91 133 147 77 114 101 125 178 113 131 140 
99 175 173 119 120 112 100 159 91 98 91 197 151 161 154 87 137 151 101 117 100 149 116 93 160 150 105 164 137 206 119 200 155 169 152 108 95 141 152 139 164 149 160 188 172 157 139 162 138 118 177 130 126 92 119 150 111 109 127 79 86 140 109 152 
131 208 133 101 117 104 133 146 86 159 189 199 74 58 134 174 197 165 128 187 114 60 92 107 168 159 129 109 202 151 107 186 190 116 145 108 116 75 135 120 72 161 174 190 162 181 189 159 105 186 182 186 183 101 95 162 177 165 121 95 43 134 78 132 
81 106 150 119 116 106 129 168 93 118 150 67 153 129 159 197 170 135 154 179 102 84 171 174 170 113 137 130 155 209 144 109 142 154 114 154 160 145 115 100 132 143 80 103 105 105 122 133 161 155 124 154 153 111 95 113 160 104 122 101 22 155 105 136 
177 172 179 81 124 127 162 94 193 147 180 115 146 206 132 166 144 115 119 136 100 72 119 126 178 125 55 98 92 218 106 107 77 189 215 182 188 119 71 93 167 200 154 92 101 158 114 109 123 107 156 69 150 73 91 71 93 126 93 152 135 115 160 175 
216 140 209 152 136 95 78 129 149 100 110 88 159 156 185 175 93 128 130 93 111 85 165 136 110 139 122 105 159 119 168 158 159 138 189 179 130 90 159 181 125 128 130 160 182 190 151 89 168 145 100 166 160 121 106 102 153 100 78 130 44 119 116 131 
108 98 125 140 136 100 162 163 143 182 118 157 105 154 137 126 157 165 110 112 102 175 138 134 146 169 174 141 64 171 114 126 104 142 201 186 157 73 80 174 169 147 119 176 161 146 91 104 137 153 193 72 198 188 98 131 186 151 92 112 118 64 115 123 
106 88 146 169 127 132 148 157 207 170 111 180 106 188 149 133 151 98 105 124 82 107 102 143 184 178 170 103 96 183 137 79 77 170 134 120 143 143 93 170 115 168 126 166 160 140 156 118 79 184 167 135 147 154 143 163 176 161 110 153 143 111 170 130 
107 84 156 169 142 174 102 119 187 125 114 97 149 131 129 120 163 100 116 116 130 149 164 176 158 193 138 93 177 154 89 105 132 182 180 146 126 146 129 173 102 191 153 121 112 107 144 108 65 156 80 143 151 144 152 166 118 182 143 102 72 108 138 130 
112 153 187 156 164 107 137 115 128 86 151 72 127 136 116 180 122 123 185 117 183 108 172 154 113 148 125 134 148 139 121 161 195 151 132 119 176 97 135 166 141 142 123 112 110 141 90 114 101 121 105 104 171 132 184 135 177 143 125 113 65 162 145 124 
187 163 172 117 92 113 140 150 132 87 155 122 108 171 100 128 128 123 167 140 191 137 182 127 75 172 187 174 149 144 109 165 155 132 79 98 122 135 119 178 143 133 126 155 128 133 119 104 88 136 133 124 167 139 165 187 179 113 132 178 137 109 113 86 
188 150 121 175 148 101 108 174 169 86 160 105 107 137 125 107 104 169 176 193 180 165 159 119 129 177 167 183 167 116 163 132 170 129 118 49 75 108 105 185 109 175 155 202 152 132 159 145 100 130 175 108 161 155 174 125 141 170 144 149 143 121 92 137 
124 179 165 149 122 70 88 169 154 99 134 102 194 178 108 173 178 128 188 142 160 100 64 134 96 82 96 140 159 177 201 87 90 155 144 121 110 113 179 98 119 156 113 156 135 161 176 123 151 115 190 120 93 139 171 140 125 173 130 147 176 165 110 119 
68 182 196 210 227 101 87 139 144 166 126 119 66 136 107 87 191 148 134 164 206 155 170 162 114 84 125 182 107 205 163 144 127 129 152 182 126 129 84 104 168 102 80 118 140 169 118 52 110 119 151 69 71 71 166 202 186 172 136 97 95 145 175 157 
188 160 163 148 116 126 128 95 111 196 172 121 115 201 160 135 154 131 162 99 83 194 133 146 64 114 172 208 185 65 62 153 193 171 160 130 158 130 55 126 145 148 191 130 118 161 126 125 175 152 99 140 107 92 121 155 82 114 110 212 186 169 203 212 
170 111 192 135 155 139 102 73 191 150 84 163 124 186 202 175 116 187 169 155 153 121 61 74 153 145 121 105 102 154 153 204 106 129 171 141 98 73 79 198 77 135 145 105 167 140 125 210 140 179 107 170 97 77 108 160 164 131 157 155 179 182 139 123 
102 163 191 148 145 142 146 100 84 186 145 157 133 106 158 149 184 177 124 172 174 116 137 137 105 122 109 158 108 90 116 97 134 111 159 166 150 100 153 210 90 86 161 127 114 98 104 104 182 148 154 98 198 167 126 137 131 159 127 135 125 82 156 110 
179 173 116 87 116 77 138 113 166 157 132 163 187 175 160 190 162 106 134 158 101 133 143 154 149 145 145 176 138 137 128 117 148 132 96 79 104 135 168 77 85 102 154 123 96 78 107 174 164 158 135 76 103 147 166 141 125 136 174 149 53 116 109 140 
121 189 121 160 113 121 141 97 119 175 102 118 116 145 166 193 165 90 139 188 84 156 103 128 118 132 165 199 122 178 88 157 170 126 127 156 145 122 88 141 165 120 169 91 122 155 173 143 140 142 152 82 131 136 157 97 116 122 129 96 131 103 113 131 
143 209 163 164 158 119 134 76 87 156 103 137 81 147 156 189 155 155 152 135 100 102 95 159 144 97 130 177 153 157 163 167 170 131 130 178 223 123 115 117 122 140 137 149 97 158 126 104 83 149 142 156 188 195 139 142 126 151 93 122 142 116 123 164 
151 192 130 88 138 157 141 123 130 149 167 123 139 149 165 118 136 178 124 91 102 131 89 127 171 117 153 145 188 169 218 161 218 141 110 141 153 207 197 116 102 163 185 96 127 83 84 121 156 191 172 177 157 143 106 160 149 147 133 112 170 85 179 169 
160 164 116 104 116 132 169 145 123 159 156 107 172 148 125 124 155 114 84 162 153 90 156 171 191 176 169 159 180 93 167 168 172 177 117 106 155 154 161 90 83 99 132 120 165 173 129 164 181 162 158 176 175 113 73 149 123 131 180 124 164 127 143 119 
70 187 166 108 153 167 131 100 173 133 122 154 130 109 121 180 177 159 190 204 191 81 138 169 195 169 156 101 134 172 154 116 85 90 89 93 111 142 151 177 170 193 124 127 159 139 97 139 150 93 188 145 143 148 151 156 167 152 116 115 120 155 126 101 
170 92 76 117 125 105 107 162 166 213 217 197 192 112 130 172 166 183 201 54 117 142 146 156 111 75 96 124 75 169 124 177 184 160 146 136 150 148 97 139 169 109 173 153 166 131 151 179 163 165 97 121 122 154 139 67 94 134 164 150 40 88 109 171 
116 113 116 188 168 166 140 103 154 148 130 86 98 117 170 100 98 103 127 151 150 177 160 174 168 112 116 77 157 88 131 226 160 69 87 176 134 151 138 145 191 148 89 145 165 90 124 124 146 186 181 94 63 164 163 198 162 113 168 126 100 131 153 151 
152 183 73 108 104 154 178 147 84 169 205 61 188 220 119 137 113 106 94 155 75 108 140 160 184 165 225 226 190 70 186 216 184 206 110 93 120 176 165 136 88 46 134 87 148 153 176 176 158 202 116 171 153 80 124 125 166 118 182 141 164 98 160 141 
98 170 113 101 106 110 165 162 150 180 145 180 124 149 104 161 165 124 135 188 118 97 145 166 158 160 152 157 191 98 74 164 161 155 133 80 140 197 163 58 72 154 178 167 114 143 175 122 91 130 127 148 166 111 143 168 139 96 191 212 82 145 107 105 
133 138 129 151 160 159 168 142 139 120 140 135 101 107 137 112 111 143 72 143 120 168 182 139 138 133 173 152 185 118 75 157 171 128 107 159 149 210 161 130 142 137 225 124 156 123 96 100 140 116 91 128 163 162 165 127 95 126 210 148 123 80 196 105 
85 173 106 156 195 197 120 135 151 120 159 138 103 159 166 125 143 153 124 133 78 164 180 189 130 93 131 148 178 152 68 182 123 95 123 130 123 212 140 99 163 146 112 150 159 139 102 134 139 102 146 101 96 141 166 154 162 197 177 180 110 96 192 167 
86 189 129 123 111 145 106 120 98 147 99 143 148 144 180 97 132 188 144 114 79 140 144 193 109 105 103 125 152 125 125 201 180 99 136 154 154 185 114 65 97 169 115 133 157 107 150 153 145 124 155 137 118 127 129 190 129 145 180 154 140 131 146 175 
133 170 182 108 132 128 158 124 94 141 59 105 144 127 161 109 135 172 193 158 133 138 169 130 106 130 102 118 132 128 124 160 164 119 147 170 150 130 150 108 65 113 97 139 93 107 106 101 159 176 109 164 112 132 135 142 181 107 92 158 168 122 149 155 
143 170 174 166 93 92 147 170 171 128 107 80 122 78 146 143 150 145 176 173 91 147 148 104 118 170 143 125 166 156 158 131 156 153 153 127 135 103 141 159 84 128 102 135 151 134 99 139 125 185 54 80 78 155 179 172 198 156 119 147 131 179 136 67 
98 101 127 126 106 131 136 156 167 140 180 156 174 143 143 141 125 89 141 121 68 172 81 106 106 116 158 173 137 113 194 145 169 95 90 108 174 169 111 168 116 168 151 148 154 161 145 190 173 99 77 102 131 106 113 139 123 165 187 170 117 110 146 135 
168 54 142 149 88 114 113 95 107 141 172 160 155 107 167 165 169 145 97 84 170 182 101 156 134 177 167 151 115 187 151 156 160 133 132 67 104 174 87 115 108 153 168 177 133 123 157 197 115 105 96 157 129 99 122 131 143 182 128 194 158 160 129 187 
226 145 180 111 158 173 113 99 186 122 100 143 165 137 96 165 153 164 121 94 187 154 127 107 109 159 222 152 77 75 176 168 175 92 129 153 126 92 110 101 159 163 102 157 166 153 94 209 160 73 146 103 78 123 118 88 101 127 219 193 204 185 179 107 
47 85 170 137 129 119 104 164 127 159 175 187 195 134 120 127 88 173 127 115 194 118 99 104 166 171 159 149 148 172 131 82 171 157 160 133 95 141 166 189 46 54 164 198 166 157 108 171 140 68 108 92 179 158 129 145 158 158 84 198 204 126 143 121 
207 161 169 162 189 135 140 141 132 70 99 180 117 128 189 157 120 131 160 160 162 126 113 107 127 93 100 98 132 178 192 74 115 106 147 139 69 114 109 180 163 161 167 91 121 162 177 161 142 84 121 117 81 141 126 109 120 74 166 76 99 106 160 137 
122 126 137 170 166 131 102 171 101 122 101 142 172 158 118 116 111 142 203 179 121 148 157 82 136 96 111 178 163 121 184 155 101 143 175 119 72 143 98 85 146 132 83 128 158 187 184 191 182 160 99 163 150 177 193 129 117 105 152 126 132 103 96 109 
