P2
64 64
255
217 141 116 120 118 150 108 75 83 195 214 218 191 132 75 46 42 124 203 202 180 225 187 118 131 147 142 176 151 92 92 75 81 116 145 189 208 200 180 93 109 152 222 204 165 125 88 166 173 163 137 118 61 126 155 148 130 122 91 130 165 70 99 121 
146 117 144 145 140 114 79 147 123 125 119 131 139 126 119 137 125 101 134 101 192 146 178 178 138 105 163 185 162 146 131 160 142 103 141 135 158 128 115 176 150 106 100 157 181 176 125 175 177 104 123 111 136 155 144 169 150 88 125 139 107 147 128 117 
129 132 105 134 194 177 149 131 94 124 94 80 79 112 184 159 107 136 107 139 95 145 120 101 140 128 144 146 164 194 205 156 189 168 105 131 137 163 52 108 216 134 114 109 170 155 206 151 166 90 55 120 128 175 181 151 146 145 150 105 158 199 184 173 
142 129 134 153 126 172 86 172 128 117 100 104 110 123 122 121 104 130 166 136 153 110 145 138 118 136 146 121 186 146 164 156 157 176 172 126 167 141 166 120 132 143 149 83 131 131 179 146 143 152 86 113 125 129 100 108 164 132 141 122 206 196 178 121 
146 180 171 198 132 125 120 153 167 168 177 158 164 138 117 89 28 134 149 165 147 140 126 180 131 116 133 199 215 148 183 146 92 136 180 160 149 137 204 164 105 178 163 97 73 81 53 130 143 123 100 123 112 121 114 160 146 197 200 232 220 112 91 122 
181 134 136 117 138 142 137 89 111 152 145 103 100 133 116 77 91 59 159 115 164 139 140 123 196 126 106 169 174 159 145 132 159 196 188 130 170 184 150 178 137 134 96 118 114 84 108 93 116 122 129 129 95 151 114 117 129 166 104 133 144 115 108 109 
128 154 99 77 105 124 136 122 72 149 196 121 64 126 194 126 64 91 90 96 106 115 104 108 105 104 134 152 140 109 160 178 147 154 165 164 202 154 136 182 160 137 87 141 177 134 133 131 64 120 109 135 139 104 62 109 162 132 92 126 145 145 132 164 
124 115 168 106 98 121 137 104 121 144 179 143 133 107 166 100 65 75 122 139 106 110 115 148 92 107 99 185 163 150 150 103 113 163 196 161 126 141 153 111 116 108 145 122 207 140 150 112 61 76 107 152 168 172 162 160 196 142 90 125 180 95 166 158 
93 109 138 112 97 139 203 170 118 123 136 181 152 125 152 83 110 127 149 151 207 172 141 129 122 133 146 162 178 146 151 100 54 117 171 174 107 87 130 153 83 117 144 120 188 213 225 138 52 67 63 78 138 153 216 158 189 126 87 121 187 152 153 118 
127 162 123 137 101 131 129 111 145 176 179 193 192 178 139 129 73 113 155 148 161 134 113 77 85 128 121 158 112 108 104 126 157 114 177 162 130 119 107 121 123 137 100 152 149 136 130 160 141 115 91 138 127 145 164 145 173 146 111 141 185 136 167 157 
179 155 86 102 91 111 103 131 189 178 193 191 185 123 63 124 83 126 149 136 117 139 66 86 91 126 146 99 104 98 86 179 178 177 55 159 197 170 93 193 172 125 151 172 187 167 116 187 229 157 110 90 89 120 187 185 166 121 140 153 120 140 101 135 
126 111 191 140 131 122 47 134 182 208 161 154 164 152 107 98 98 169 126 189 127 123 127 109 68 122 162 138 131 134 154 154 196 131 125 154 105 135 107 103 165 120 137 116 147 145 143 120 137 132 126 86 66 131 155 119 181 134 140 154 170 187 165 143 
87 139 168 155 86 98 83 124 181 170 187 180 178 144 170 153 91 163 174 158 196 145 137 127 118 161 146 137 188 126 147 104 121 152 157 100 135 87 117 130 110 161 118 138 85 120 95 84 93 67 94 101 153 157 185 140 159 172 75 150 158 212 171 124 
99 158 154 142 145 110 70 148 183 157 153 154 141 127 120 121 144 151 165 167 154 188 177 101 75 138 127 113 139 77 120 92 121 86 142 132 129 116 150 104 100 74 108 86 95 98 159 95 79 85 124 101 147 148 196 124 195 152 148 156 191 136 121 133 
105 89 85 116 188 144 128 101 171 186 146 123 109 159 99 127 186 149 179 139 197 133 147 123 144 99 66 133 161 124 102 75 108 121 94 109 159 179 158 124 55 80 80 112 110 122 171 71 57 91 86 101 72 178 215 148 136 192 134 166 161 100 81 72 
67 63 87 114 128 114 82 122 177 164 157 159 176 197 115 151 179 141 130 133 123 168 144 119 70 143 128 136 153 133 97 107 106 106 148 155 121 140 159 122 113 127 155 157 129 147 123 129 82 105 136 94 68 114 167 116 148 136 179 121 119 137 126 87 
74 88 68 101 91 122 122 108 174 176 155 138 172 148 196 171 181 130 152 142 142 144 182 119 71 84 64 152 162 125 78 169 184 193 171 158 171 133 134 122 203 159 182 194 165 124 133 132 110 139 128 163 152 78 127 70 101 68 109 144 189 138 136 129 
61 118 112 137 110 87 145 143 160 146 180 158 128 123 145 155 183 158 119 141 141 132 135 138 115 140 138 186 199 157 155 109 167 108 138 188 169 118 97 154 152 138 149 161 138 80 135 92 126 86 133 146 156 61 57 95 125 96 108 153 169 113 148 124 
101 143 193 178 136 179 200 124 165 172 169 142 111 48 84 112 160 150 202 197 186 157 178 117 141 176 182 213 177 159 176 168 87 118 113 155 142 169 140 167 180 193 152 141 138 75 76 137 102 165 128 106 53 102 144 121 69 99 88 123 110 129 141 160 
144 171 196 133 105 172 186 141 141 168 220 163 130 128 74 161 186 173 103 140 178 103 129 114 157 137 143 102 128 152 151 115 61 139 96 118 162 107 171 131 208 157 182 118 156 73 80 165 189 134 120 109 109 106 117 95 131 124 83 140 142 119 155 162 
160 170 195 117 135 158 159 145 126 136 163 152 143 156 128 139 168 167 146 153 170 198 149 141 116 82 88 74 63 119 175 130 81 99 107 143 90 159 132 209 160 167 211 133 72 99 143 140 180 136 133 95 54 96 53 144 156 143 126 120 85 117 200 164 
153 136 157 167 130 147 197 188 117 138 144 158 109 136 136 163 203 206 150 154 192 101 105 155 110 159 123 104 86 129 142 123 69 99 106 110 45 86 158 166 127 109 108 113 122 95 98 91 177 155 134 134 100 82 129 176 167 109 140 143 117 144 137 174 
93 97 70 112 237 198 173 158 192 185 187 71 56 119 145 162 154 185 205 140 113 104 104 127 129 153 149 52 109 114 88 118 84 92 181 94 53 118 203 153 101 107 108 74 136 151 143 162 98 104 121 138 118 100 113 145 141 181 158 193 216 225 157 173 
58 47 92 139 130 121 153 169 110 103 116 158 142 114 158 137 147 194 188 160 136 154 130 122 134 122 143 92 144 106 100 101 66 116 139 118 114 128 154 149 126 127 49 112 127 101 139 137 115 153 138 146 133 129 166 167 154 166 146 188 147 117 134 148 
54 102 92 113 85 102 141 90 82 101 145 141 149 117 136 172 150 157 131 218 172 153 185 143 208 114 138 129 187 143 163 96 42 121 163 160 162 130 106 136 157 116 85 118 97 133 131 142 165 172 198 128 119 90 93 164 182 176 107 186 195 113 64 88 
114 154 111 96 157 112 113 93 158 161 171 100 101 141 201 162 147 164 133 109 112 128 169 178 128 150 109 96 168 146 99 100 81 96 134 140 107 159 149 163 159 179 143 140 192 155 131 146 90 161 193 180 124 101 66 139 118 131 94 165 209 155 117 98 
135 153 199 155 134 97 122 125 136 165 124 155 108 158 165 159 141 147 107 80 116 152 135 127 122 111 110 98 115 97 95 80 121 124 125 122 140 168 136 143 96 121 194 207 207 127 83 100 65 92 162 110 112 106 67 119 99 86 28 135 171 128 90 139 
184 167 161 95 111 139 78 148 171 190 158 180 185 142 136 108 121 146 126 91 99 141 119 68 87 94 166 103 94 82 133 115 176 128 61 119 175 177 140 116 143 138 140 167 168 153 68 124 93 127 114 129 71 134 150 134 161 135 139 134 160 104 116 139 
202 128 129 101 79 79 78 156 161 158 154 201 206 179 57 85 102 114 165 108 118 98 72 98 47 163 183 150 99 114 108 188 179 96 107 156 169 129 89 164 205 173 113 175 176 127 137 174 188 122 95 80 24 128 129 171 156 182 145 126 164 170 109 120 
126 93 81 127 116 135 122 133 146 124 149 115 160 109 97 155 103 140 144 179 126 132 95 159 137 120 210 131 87 75 107 174 204 114 65 145 166 134 78 143 144 122 148 137 147 162 93 156 163 123 173 149 108 134 143 109 152 138 121 154 177 171 153 143 
112 85 91 129 130 170 127 145 94 84 126 91 125 118 104 119 116 149 124 121 147 170 143 189 165 157 218 142 67 51 111 83 138 148 92 128 103 134 100 121 67 142 164 95 126 119 130 123 86 147 209 195 158 159 130 106 114 133 146 136 148 131 119 102 
98 90 145 127 159 123 130 150 80 103 138 148 114 102 123 87 113 101 165 145 159 129 148 125 132 149 134 125 141 99 101 124 151 97 106 147 151 176 141 92 63 111 142 101 147 95 115 121 104 136 120 157 151 111 116 128 117 119 140 115 130 128 122 96 
116 139 158 136 136 168 150 123 75 175 180 180 218 121 87 54 116 129 153 116 146 117 93 140 143 108 85 123 167 154 108 109 118 121 72 170 175 152 137 160 118 72 105 113 159 162 134 164 138 133 119 32 37 105 150 137 108 75 118 74 103 89 194 157 
132 128 117 142 167 103 157 153 101 120 106 131 175 113 84 92 144 139 143 164 169 100 159 174 160 121 57 123 171 160 88 111 83 98 58 132 124 174 185 170 117 103 114 103 114 169 120 176 138 142 108 138 114 149 153 158 134 150 98 115 102 152 140 99 
76 145 151 147 103 85 148 128 89 91 51 159 179 119 141 91 144 95 100 114 152 196 140 132 112 140 113 179 172 141 136 127 138 76 120 57 74 126 120 169 125 150 97 107 93 142 152 105 158 146 174 148 138 160 190 182 173 172 143 127 197 109 83 122 
63 138 170 151 180 119 137 137 111 110 108 95 179 125 127 134 154 153 171 140 158 180 113 134 149 83 125 144 173 134 116 136 122 95 80 113 156 129 137 165 152 164 101 143 150 145 89 112 124 186 200 186 191 156 151 155 171 137 75 151 149 121 112 112 
137 120 132 177 141 191 157 112 116 152 180 189 201 113 91 131 209 176 158 165 85 142 114 101 134 108 44 71 153 137 112 86 106 123 92 163 200 193 220 156 224 193 165 197 206 121 91 111 140 198 188 181 176 231 216 151 121 136 113 176 176 208 213 117 
162 128 156 147 210 125 116 127 83 96 196 166 221 153 88 168 200 183 165 142 91 99 167 121 89 110 139 134 158 102 132 147 90 104 88 179 112 145 143 158 211 126 180 146 171 101 114 106 126 184 195 198 208 179 171 145 85 118 162 153 131 151 147 107 
160 181 163 165 163 164 98 46 103 137 184 178 169 134 118 145 158 175 150 155 192 169 138 117 130 151 158 139 90 159 182 179 152 134 157 141 51 70 105 113 160 113 32 120 109 105 85 178 175 172 147 180 173 147 83 72 125 134 143 132 118 110 110 93 
176 157 147 114 130 135 63 127 133 159 211 188 135 120 114 70 149 156 81 159 161 171 124 147 99 148 179 130 120 137 134 101 99 156 178 116 89 114 141 73 125 97 162 129 121 111 70 114 146 156 135 136 184 136 76 111 98 135 121 152 109 109 97 119 
129 153 139 193 182 160 100 99 206 178 179 124 108 94 122 83 124 129 86 83 86 156 96 85 108 72 171 107 152 128 113 98 108 125 166 210 185 146 132 95 95 161 201 139 149 142 141 123 92 86 74 129 138 92 114 74 93 104 124 131 155 162 146 108 
160 188 175 173 191 172 132 142 127 151 171 124 141 158 108 160 124 91 97 100 48 112 106 78 53 151 209 190 141 176 115 131 148 193 224 163 125 176 163 127 113 95 119 105 164 161 189 129 131 128 146 164 122 133 170 90 141 111 138 127 156 177 162 143 
192 169 157 176 196 220 197 115 101 120 107 179 185 149 185 114 64 98 86 36 77 116 161 119 114 169 172 187 181 176 173 135 195 203 217 131 124 106 129 133 199 122 70 117 135 146 194 139 66 142 203 149 170 148 156 134 141 135 169 156 140 137 150 123 
112 209 233 146 175 175 111 159 126 119 133 147 117 158 156 127 135 168 187 105 149 138 118 105 49 130 184 178 131 128 147 137 124 179 215 192 156 165 117 133 142 70 58 122 121 191 178 147 89 157 205 164 170 138 108 144 135 150 156 147 143 115 149 116 
149 137 166 161 117 91 84 134 220 195 165 171 137 126 106 117 172 125 178 183 197 130 37 33 84 77 184 176 212 212 188 125 112 168 151 159 165 96 96 86 102 98 145 161 203 154 166 101 88 113 166 173 186 132 32 117 189 197 167 101 81 136 163 130 
103 115 134 169 162 113 108 128 129 117 90 94 120 141 103 101 110 128 147 162 143 167 133 127 92 171 144 169 220 151 119 111 138 136 170 173 200 141 67 119 103 110 113 131 179 163 111 69 125 154 148 140 194 114 59 123 183 181 163 64 124 115 92 135 
94 126 64 128 152 205 174 81 82 128 68 137 139 131 171 111 57 85 50 67 87 149 207 203 206 206 126 191 195 138 114 55 94 160 182 177 164 114 127 83 92 134 167 164 161 90 100 100 80 75 104 115 197 113 90 94 183 124 90 78 66 95 121 107 
96 150 146 125 129 150 164 112 99 98 137 107 125 93 161 79 82 112 104 80 138 167 193 193 178 197 120 95 143 130 140 77 116 148 141 85 87 171 185 132 51 127 127 113 145 117 99 111 114 146 97 106 209 177 79 137 146 116 90 105 131 141 127 137 
103 144 177 190 137 162 153 138 67 86 93 107 157 144 62 106 49 94 87 157 176 177 164 216 176 161 91 86 108 177 162 139 99 122 121 86 80 136 228 141 108 61 93 182 177 129 88 138 211 180 89 144 207 146 135 119 194 106 112 179 151 192 107 116 
92 183 187 165 143 133 90 95 134 107 125 128 182 99 63 102 108 147 135 168 211 157 65 84 154 160 158 124 184 167 141 128 108 141 145 104 143 137 113 139 139 90 118 136 136 134 117 115 149 152 171 195 200 159 73 172 200 197 165 125 138 159 149 103 
132 188 191 152 82 101 53 84 174 131 105 150 129 127 65 131 173 126 174 187 189 134 68 32 92 109 138 139 226 213 149 126 122 152 173 146 127 131 77 76 81 103 99 171 171 198 187 135 87 98 195 170 175 150 101 116 196 224 175 146 107 141 134 88 
134 157 180 160 110 124 121 139 99 91 60 106 126 139 106 123 135 175 188 166 169 106 119 113 56 152 204 173 174 187 203 146 109 129 188 151 115 93 77 104 153 127 144 118 195 127 120 108 148 177 212 180 165 146 145 177 140 125 178 151 116 123 102 164 
81 107 95 125 162 155 106 113 92 108 70 147 173 154 129 67 97 145 147 160 55 132 164 162 117 141 170 203 138 168 152 104 137 195 175 185 117 115 88 107 182 167 206 162 126 123 116 128 109 124 147 185 202 185 137 103 128 127 137 129 179 116 113 146 
135 73 138 156 153 139 79 92 113 133 142 141 132 166 156 169 118 131 193 161 94 153 156 175 150 145 204 163 144 149 135 104 96 176 140 121 88 98 98 148 102 158 205 167 138 118 118 99 111 139 96 170 182 176 131 118 82 142 104 120 192 168 132 147 
177 149 170 125 186 111 65 116 107 127 184 147 90 129 168 212 150 130 180 139 111 123 171 194 196 134 131 166 145 137 97 146 128 97 159 105 100 107 75 111 137 99 199 194 137 125 53 65 105 99 88 152 205 152 106 108 113 44 99 162 218 235 126 182 
112 120 153 148 171 127 120 99 137 150 160 140 74 124 127 157 110 107 151 99 93 119 172 148 179 168 208 139 89 130 125 119 131 147 150 144 47 46 98 153 182 112 147 129 93 118 103 144 102 88 152 153 102 157 171 113 126 93 91 151 128 164 187 213 
208 166 140 190 223 166 158 149 101 84 99 48 92 143 179 117 114 80 104 86 93 148 169 147 158 179 201 169 50 102 98 149 121 108 81 127 124 102 77 90 162 155 129 109 82 146 167 103 94 108 206 104 129 105 157 162 144 147 157 160 127 180 217 171 
148 141 89 153 128 107 160 139 142 107 137 164 164 83 142 162 166 156 101 146 138 76 122 150 203 169 114 153 121 117 166 174 147 128 63 49 95 118 99 158 190 184 127 165 150 142 215 174 135 146 91 127 152 156 141 113 116 115 101 149 149 169 228 194 
107 116 92 123 117 140 184 143 133 98 169 155 146 199 159 167 180 184 113 154 137 152 86 108 187 133 113 88 119 198 216 104 96 130 135 138 107 193 200 117 116 111 156 166 117 205 219 114 153 139 58 134 176 114 121 113 133 88 97 108 153 200 221 155 
86 60 96 110 142 172 189 141 137 171 136 121 176 153 205 194 187 158 144 146 190 139 97 131 185 132 83 120 134 168 121 101 90 120 83 115 98 166 170 156 99 115 151 186 194 185 148 161 93 77 79 113 188 105 141 68 95 91 78 103 156 143 161 169 
128 76 97 130 131 159 160 166 117 106 202 153 122 176 215 145 170 114 109 161 149 118 125 182 241 216 188 178 122 111 127 113 98 87 155 157 97 81 66 55 95 99 197 172 198 194 213 148 89 127 71 144 188 104 144 115 104 69 70 125 187 137 75 85 
117 128 70 110 190 170 193 144 149 181 142 104 70 157 196 163 127 146 108 96 98 134 170 169 112 145 153 115 186 155 83 112 112 113 122 104 112 149 141 145 161 187 174 148 204 214 197 148 44 99 144 182 140 131 79 127 82 132 111 154 195 175 151 152 
104 89 86 108 197 193 136 160 171 182 87 66 94 191 189 160 106 69 92 102 105 126 149 156 100 91 108 130 187 112 101 103 138 124 85 125 184 162 144 179 169 170 129 195 192 148 113 51 94 141 149 169 145 145 136 149 172 153 112 170 142 194 156 139 
112 139 158 168 195 161 136 162 180 107 159 145 120 119 137 93 86 100 151 95 80 66 143 156 158 114 107 180 187 107 69 153 185 128 120 138 183 149 111 136 220 176 129 123 133 148 154 111 99 157 151 135 131 153 121 141 148 152 204 163 161 137 147 119 
