P2
64 64
255
217 196 178 169 151 141 144 130 121 112 116 135 139 136 125 120 119 112 110 113 118 136 158 164 161 150 150 138 124 106 108 106 98 88 79 75 72 73 73 82 83 102 124 146 175 195 204 215 215 204 214 219 230 230 223 218 209 194 184 194 191 187 183 177 
199 189 176 164 153 146 134 119 120 127 129 125 124 119 114 114 116 116 126 135 137 136 145 149 142 153 131 124 121 112 105 94 96 91 85 80 85 84 94 102 101 99 120 141 163 184 184 194 207 211 214 206 204 207 215 219 213 197 185 192 192 180 180 171 
182 174 165 156 148 147 135 128 127 130 129 130 119 108 105 105 117 131 141 146 146 147 138 135 131 120 118 106 103 99 95 89 93 89 87 98 103 108 117 120 117 119 120 135 147 166 170 164 174 195 213 191 188 188 193 203 200 196 192 182 183 167 157 152 
171 164 152 146 142 139 135 125 130 130 132 134 121 116 111 121 122 143 150 152 152 153 138 132 126 113 102 97 87 83 84 85 91 97 100 110 116 124 123 127 132 135 128 128 141 147 151 149 152 168 183 176 170 170 172 187 180 189 180 171 170 161 150 142 
158 156 145 141 133 123 128 119 124 140 137 135 128 125 126 130 137 143 148 152 149 155 151 138 123 116 98 89 82 82 74 83 91 104 112 134 127 130 132 134 131 136 136 134 130 137 136 146 147 143 143 151 155 156 149 160 156 156 160 153 152 156 140 139 
146 152 144 141 135 117 115 121 123 138 144 144 138 138 138 145 149 147 151 148 140 157 157 139 128 114 104 87 90 92 79 82 90 109 135 147 134 141 142 135 123 131 140 139 127 125 118 137 142 134 119 138 141 144 132 131 128 125 127 139 139 133 126 128 
149 137 137 133 120 119 116 119 123 126 127 136 134 133 126 133 147 150 154 156 160 153 161 148 131 128 113 106 97 95 107 96 100 111 132 142 140 140 139 133 138 143 141 136 122 125 124 123 125 125 119 119 113 119 120 121 114 113 113 114 121 119 119 124 
137 140 132 124 111 116 115 116 119 114 112 122 135 130 122 115 143 165 176 171 172 165 158 145 133 132 123 115 112 110 109 111 108 118 128 134 132 138 141 139 134 131 133 131 128 134 128 114 117 117 110 109 96 96 111 117 109 108 108 102 99 105 113 118 
136 141 134 131 119 123 118 123 116 109 107 115 128 131 121 113 140 166 177 176 174 173 167 155 150 139 133 129 125 128 120 125 123 123 128 132 126 134 129 129 122 127 136 135 138 132 124 120 109 110 114 103 93 84 90 99 91 97 98 100 84 94 100 103 
130 133 142 143 127 130 131 132 128 105 109 110 115 120 125 132 145 166 180 181 180 183 178 175 167 154 150 144 142 147 137 137 130 130 135 131 134 123 116 106 102 121 138 139 139 126 123 118 107 101 100 93 94 84 77 89 77 88 94 91 81 86 94 92 
129 130 142 145 130 132 133 140 130 117 105 104 111 115 133 134 144 166 179 180 194 193 190 178 172 177 161 158 148 151 149 147 145 126 129 131 124 121 113 105 94 106 132 136 141 124 112 113 108 110 94 98 90 79 72 80 88 101 101 92 79 81 81 85 
131 146 143 140 134 130 135 131 116 106 109 112 116 121 134 142 157 166 176 183 182 183 189 181 171 167 155 147 137 138 139 141 139 131 128 124 123 119 112 110 115 111 128 135 137 125 117 109 105 101 100 98 88 78 83 75 79 84 96 99 94 91 88 90 
149 147 128 131 133 127 131 121 112 109 120 116 121 127 135 150 150 145 161 170 165 175 180 176 168 163 154 136 125 118 124 125 136 137 125 128 122 124 118 126 125 121 112 122 138 128 121 100 101 110 109 102 94 88 95 86 88 85 92 108 118 105 96 94 
152 146 134 129 132 123 121 115 110 114 125 121 128 131 139 147 147 140 148 158 151 161 169 167 167 157 145 129 113 100 106 111 131 137 136 141 136 132 128 132 126 127 114 117 129 122 117 101 99 109 112 100 100 98 100 98 100 99 98 113 124 110 103 96 
140 144 148 147 136 130 127 109 106 116 125 132 128 132 138 147 147 136 143 143 140 152 155 165 174 162 147 130 115 100 86 101 123 138 151 157 157 151 140 135 139 125 127 124 120 108 106 97 94 97 106 101 102 101 101 102 105 104 107 104 106 106 111 105 
142 152 158 153 143 129 130 122 114 128 134 132 146 145 148 153 143 144 144 144 126 148 157 160 165 172 149 133 114 93 86 99 115 132 153 172 165 157 139 131 128 138 132 128 114 117 104 102 102 104 100 114 110 114 111 104 113 112 107 104 110 103 106 113 
152 162 163 155 152 154 150 134 133 144 145 145 141 150 154 154 146 141 136 129 130 137 145 156 163 157 154 134 115 92 79 96 113 129 149 159 153 154 142 133 134 128 136 139 132 123 117 118 119 112 110 109 112 113 115 118 116 127 132 126 117 122 127 124 
150 149 151 158 163 177 170 157 147 150 155 157 154 161 164 160 160 141 128 133 140 131 142 152 147 152 140 128 116 99 97 100 110 126 150 164 157 149 139 134 130 137 138 137 140 143 139 135 136 127 115 119 118 122 129 128 132 149 149 134 133 130 130 131 
146 144 156 162 176 190 182 161 153 158 163 168 171 175 179 178 175 149 130 132 139 126 138 140 139 143 131 125 123 112 117 116 121 127 143 158 156 150 147 143 141 141 149 151 148 154 150 146 148 139 134 136 139 137 140 136 142 161 160 149 142 143 143 139 
143 144 156 167 179 181 179 166 157 164 169 172 179 189 195 194 188 160 139 134 133 129 129 132 130 121 131 124 126 121 111 127 131 131 142 153 159 148 148 152 152 150 157 160 162 155 151 151 154 151 156 158 158 152 155 151 158 156 164 165 156 158 157 152 
146 151 151 164 178 180 189 175 162 162 171 176 178 186 196 198 179 170 156 137 132 123 128 129 132 125 120 131 139 127 120 119 116 127 143 153 152 142 144 165 167 168 166 167 170 168 154 153 154 158 177 163 155 160 164 158 152 159 165 171 164 167 158 153 
147 155 163 163 180 177 175 174 167 162 166 166 180 193 193 183 172 164 146 136 134 126 123 129 133 127 124 129 135 130 128 129 134 136 146 158 157 151 151 148 164 157 160 165 174 169 155 151 153 161 164 161 159 156 155 152 146 154 158 156 163 154 154 154 
149 165 180 179 178 173 176 174 169 160 162 168 178 183 172 165 147 137 129 131 135 135 137 139 137 136 130 134 136 129 134 144 144 139 145 149 148 155 152 147 146 145 150 161 171 163 162 156 154 161 158 159 147 149 143 139 132 136 141 147 145 150 147 151 
166 171 179 174 160 153 165 169 167 150 158 162 167 164 158 139 130 125 121 134 137 137 145 142 140 145 137 138 135 137 137 146 142 137 133 129 139 145 148 140 125 139 147 153 165 170 164 160 148 150 157 151 142 137 132 138 121 116 119 128 124 136 138 144 
181 178 176 166 141 134 148 157 156 146 149 151 158 158 143 130 126 120 124 141 146 143 132 127 137 145 135 134 134 135 146 139 131 119 103 107 122 131 130 126 118 135 141 149 156 169 159 160 153 145 154 147 150 144 125 129 113 102 105 113 119 113 119 135 
181 177 176 158 131 134 135 139 139 134 136 136 139 143 124 117 118 109 117 131 138 139 136 132 138 142 150 139 142 144 137 125 117 100 91 89 101 121 128 119 111 119 130 138 156 152 163 161 151 158 145 143 152 143 123 103 105 103 94 93 100 98 113 123 
175 173 164 156 142 128 135 142 141 135 124 125 125 123 113 98 107 108 116 126 135 139 127 127 132 142 127 128 135 145 137 140 122 108 95 91 100 109 115 106 99 106 119 132 143 137 149 163 160 155 148 143 138 134 119 111 95 84 73 72 89 86 97 118 
150 158 146 144 145 154 146 142 136 130 130 131 120 113 93 72 87 95 100 114 119 129 132 130 120 124 115 117 125 136 132 138 125 109 93 91 95 99 95 96 92 94 117 134 134 128 149 170 167 159 147 145 145 133 116 116 103 92 82 71 66 73 87 112 
141 144 146 143 155 166 153 142 134 122 121 121 117 105 81 64 75 86 96 105 113 121 127 125 113 115 116 115 119 123 129 131 119 111 92 99 99 90 94 88 87 93 113 127 124 131 153 174 182 170 167 167 150 141 128 118 107 92 82 71 56 65 82 99 
129 135 143 156 165 161 153 142 128 124 105 105 95 92 90 79 75 83 94 100 107 117 115 117 118 120 128 123 118 121 121 118 111 111 102 111 99 95 94 85 79 92 110 122 134 138 152 168 174 182 182 179 160 147 138 126 103 90 76 66 55 70 82 98 
128 143 150 156 163 154 151 140 129 107 99 101 103 93 83 77 69 76 96 107 105 109 104 111 127 124 122 133 128 123 136 118 112 110 109 122 107 111 107 80 72 92 114 121 138 149 155 161 174 190 196 182 164 148 142 121 111 94 74 64 64 71 85 102 
135 147 151 154 155 166 149 140 128 112 116 113 112 98 72 66 74 88 103 107 105 113 105 110 110 118 123 130 133 129 121 127 113 109 105 116 113 98 94 87 78 84 104 123 132 140 155 169 180 189 196 190 177 161 139 136 121 97 75 68 53 69 93 110 
138 146 155 157 157 154 139 134 130 125 131 132 120 101 87 64 81 92 102 108 103 108 103 99 98 112 116 126 127 127 129 129 116 109 107 103 98 90 86 87 90 94 105 116 125 140 157 167 179 180 175 176 180 163 151 144 122 98 79 71 56 62 88 101 
129 131 143 147 140 141 137 133 137 140 142 144 131 115 100 80 84 92 101 104 100 107 100 100 99 107 123 131 132 133 132 129 125 117 106 97 95 89 93 95 104 105 108 116 126 144 154 159 167 166 164 171 172 160 154 139 122 97 85 80 68 75 96 105 
121 118 118 121 121 126 129 131 138 158 161 158 141 122 111 102 90 86 92 95 101 106 107 106 102 110 123 136 136 129 133 134 143 134 109 97 89 100 103 110 118 112 104 110 129 147 158 158 156 161 174 170 161 151 147 136 131 108 100 106 100 102 100 108 
124 110 111 112 116 115 117 121 143 162 168 162 144 130 120 106 100 84 81 93 98 100 114 113 108 121 125 132 141 145 137 153 151 141 126 104 103 101 106 123 121 107 107 110 135 144 144 142 152 173 179 174 158 144 151 143 136 132 125 131 133 123 116 121 
102 99 100 105 118 120 127 138 150 160 171 160 151 129 103 102 83 80 90 102 96 103 111 118 120 125 137 146 156 170 164 162 170 156 127 109 100 102 109 121 127 109 99 108 131 141 142 138 146 158 164 151 150 147 147 147 146 134 132 144 144 129 138 143 
92 90 95 106 118 121 128 137 148 158 156 147 142 123 94 86 73 80 90 93 96 103 105 115 125 135 149 160 171 188 186 182 183 169 139 116 104 107 107 112 117 116 108 111 119 124 133 136 140 143 140 143 156 153 142 154 152 148 145 140 140 142 158 160 
91 89 92 102 113 116 126 130 147 153 144 141 134 119 100 79 76 79 90 91 98 102 105 113 128 142 159 165 184 199 193 199 197 180 151 131 123 121 118 115 120 115 112 112 117 112 130 133 134 133 124 141 153 149 148 164 158 155 153 145 136 150 163 160 
89 89 98 106 109 118 117 129 145 151 142 139 137 123 114 92 80 79 80 86 98 95 109 119 123 144 154 171 185 191 194 197 188 178 168 160 145 132 126 122 122 111 107 110 117 122 131 132 133 132 125 136 146 154 159 177 168 160 158 153 145 153 151 155 
93 101 103 101 99 109 121 132 139 143 138 153 150 131 116 112 82 78 81 80 97 101 109 118 121 139 150 163 182 200 203 193 178 171 174 170 154 135 126 120 118 119 103 98 117 123 126 130 140 142 136 130 133 151 165 181 186 175 168 162 152 155 149 147 
103 101 101 102 112 120 118 137 150 152 143 147 138 118 112 108 89 76 79 87 99 99 106 117 129 143 150 168 189 198 200 191 172 163 168 167 152 131 121 119 114 114 103 101 118 119 129 137 147 146 135 136 146 150 160 176 185 174 167 166 158 156 154 155 
97 104 110 121 123 124 121 134 147 146 137 138 124 115 117 114 97 89 84 88 91 92 93 106 130 152 165 172 181 182 174 181 168 162 165 150 141 133 128 123 126 116 112 114 110 110 128 134 143 144 139 146 144 150 160 170 178 181 172 166 171 171 168 170 
99 112 124 134 139 144 134 145 148 144 136 135 126 116 125 121 104 96 91 83 92 90 96 105 131 147 163 165 164 160 161 155 150 145 144 130 126 125 132 132 132 126 124 119 119 124 135 142 147 150 142 149 150 150 164 164 181 179 175 173 172 184 183 181 
104 123 134 151 162 171 154 152 148 137 133 130 133 126 125 129 110 93 90 89 93 99 110 123 136 148 154 154 149 145 147 135 127 122 121 118 113 116 127 137 138 134 137 135 144 158 155 156 157 157 162 165 156 159 172 179 182 173 170 177 182 196 198 196 
127 131 141 145 171 162 170 152 140 123 123 129 136 131 136 137 114 92 85 89 101 98 110 124 136 131 144 137 138 129 129 124 108 96 97 111 116 117 131 135 145 149 145 149 166 176 179 178 177 167 179 175 171 180 190 193 181 172 177 187 192 200 201 191 
140 137 150 154 164 175 151 136 122 115 101 105 122 129 128 137 120 98 84 99 101 104 111 125 127 126 132 141 133 118 110 110 107 112 111 117 113 129 145 157 155 153 155 162 174 167 173 172 170 176 187 172 175 184 179 191 181 181 185 187 188 201 201 195 
156 158 158 159 169 165 147 121 100 86 88 91 111 119 121 123 114 96 96 100 96 101 110 117 131 144 138 131 123 111 105 113 115 114 113 109 124 149 168 176 178 169 171 170 167 156 156 166 169 173 188 175 168 171 175 178 179 179 181 196 200 198 196 188 
174 175 167 162 164 154 141 110 91 74 74 81 100 110 120 120 114 104 95 97 99 102 106 114 129 142 138 129 122 110 108 111 116 114 114 110 134 158 175 182 186 179 182 179 161 150 155 160 175 185 194 182 176 174 176 176 178 176 180 200 201 198 187 173 
182 179 170 164 155 145 132 102 83 80 78 81 99 112 115 104 104 101 94 85 96 103 97 109 127 129 127 120 114 107 101 109 119 119 115 118 137 155 170 175 182 189 190 180 165 162 166 175 183 183 192 191 196 194 188 186 189 187 184 188 192 190 174 154 
179 180 171 164 169 155 134 100 81 72 86 82 92 99 100 102 100 97 90 87 91 99 97 107 110 111 127 116 103 98 103 95 118 115 113 131 138 153 172 180 189 187 190 186 183 178 177 176 188 191 193 204 210 202 189 191 194 191 198 190 185 178 159 143 
177 182 179 167 159 155 134 108 88 80 76 88 100 105 102 109 109 100 95 102 98 94 98 103 111 104 114 113 101 92 89 103 121 121 127 126 145 155 171 189 196 197 203 194 177 171 180 185 188 192 191 188 186 180 178 188 190 196 202 194 189 181 173 157 
169 174 167 155 151 145 139 125 113 93 88 94 104 107 124 126 121 114 113 105 91 94 94 97 101 98 107 111 99 91 82 97 112 115 128 130 151 165 178 188 202 204 209 199 181 171 178 188 186 191 202 185 169 165 170 175 181 191 200 188 180 183 188 170 
153 159 154 148 135 135 135 131 126 115 115 115 118 118 128 135 124 124 123 106 98 108 106 96 94 104 102 102 89 78 69 82 96 107 119 128 144 165 180 189 195 206 202 202 188 183 185 187 184 185 196 177 157 156 158 157 166 180 189 187 172 179 189 172 
125 142 142 139 122 121 122 116 128 149 150 145 140 142 137 128 127 125 120 118 121 125 126 123 108 113 106 89 74 62 48 65 91 105 118 125 138 155 171 181 184 197 202 206 205 203 197 184 172 175 174 160 152 150 151 145 159 170 180 179 171 179 184 175 
126 120 124 124 123 111 110 118 141 170 191 180 169 157 156 140 135 123 118 124 131 119 126 132 122 122 104 72 49 41 47 47 81 97 113 134 151 162 180 181 182 191 198 202 206 208 192 175 172 165 161 159 158 151 149 154 148 153 170 164 164 165 169 164 
111 112 118 124 125 125 125 135 156 178 183 178 165 156 150 145 137 125 119 114 116 116 119 119 118 110 103 83 68 55 45 63 79 92 113 137 141 151 166 179 184 187 198 203 207 214 195 176 166 168 160 160 157 146 147 149 149 147 151 151 165 168 169 158 
102 99 106 109 119 132 143 159 173 173 177 179 169 160 154 151 136 138 130 110 105 103 104 98 88 93 95 93 91 80 74 78 82 97 115 137 139 152 159 172 179 187 197 205 205 207 190 184 179 168 165 169 169 160 154 153 146 142 146 156 152 157 149 144 
88 101 102 110 121 134 155 169 181 173 179 177 173 160 159 146 136 141 132 105 94 103 99 87 83 80 87 97 94 85 81 88 89 95 115 133 145 154 165 173 181 192 200 194 191 194 187 185 181 169 176 178 181 172 166 157 149 145 148 155 147 149 142 134 
87 101 111 119 127 136 150 165 178 175 175 175 171 166 158 151 133 126 114 100 96 102 98 88 90 94 90 91 85 86 82 87 84 92 104 131 144 163 177 174 183 189 192 184 171 170 185 199 202 188 175 183 185 173 167 171 161 157 155 162 157 163 144 131 
87 102 119 126 138 139 156 166 178 179 168 172 172 158 154 155 142 113 101 100 86 96 94 92 104 98 94 90 84 94 83 86 79 83 105 124 153 166 180 186 181 188 186 179 171 170 180 202 201 192 187 176 170 170 185 180 169 149 152 166 178 167 141 125 
88 110 121 130 137 146 155 154 168 177 183 178 170 161 158 159 135 108 107 106 104 105 100 98 107 108 96 80 67 70 79 82 88 97 110 143 152 168 179 183 178 188 192 179 171 174 178 184 188 188 185 175 177 173 176 172 168 156 152 155 165 160 148 139 
101 119 129 135 141 143 153 152 164 177 192 182 167 161 156 149 137 111 110 121 119 118 118 118 121 111 102 70 61 51 60 70 89 106 129 157 167 170 183 184 179 188 195 185 174 172 176 165 165 168 171 168 170 172 177 176 175 170 162 150 144 144 156 142 
112 123 139 142 147 150 156 160 160 174 189 175 163 150 152 139 134 116 117 128 138 136 137 131 132 124 100 77 66 55 54 67 97 114 136 157 170 173 185 181 182 181 189 187 174 164 160 148 149 152 154 157 154 158 172 177 165 163 164 143 144 138 150 145 
