P2
64 64
255
217 178 151 144 121 116 139 125 119 110 118 158 161 150 124 108 98 79 72 73 83 124 175 204 215 214 230 223 209 184 191 183 162 129 97 75 53 42 29 41 42 76 110 142 182 203 204 209 195 166 180 193 212 211 199 187 169 138 120 137 131 133 141 159 
182 165 148 135 127 129 119 105 117 141 146 138 131 118 103 95 93 87 103 117 117 120 147 170 174 213 188 193 200 192 183 157 155 134 108 83 78 65 71 80 75 68 102 131 158 183 167 172 185 185 186 171 167 173 188 194 183 152 129 142 139 123 139 151 
158 145 133 128 124 137 128 126 137 148 149 151 123 98 82 74 91 112 127 132 131 136 130 136 147 143 155 149 156 160 152 140 140 121 106 113 110 108 114 113 106 107 100 121 131 154 150 123 135 167 201 158 150 153 159 179 174 165 156 135 138 113 109 121 
149 137 120 116 123 127 134 126 147 154 160 161 131 113 97 107 100 132 140 139 138 141 122 124 125 119 113 120 114 113 121 119 124 129 123 129 129 135 123 123 132 135 117 107 126 126 125 111 110 136 165 151 139 137 144 172 159 176 158 140 139 124 116 119 
136 134 119 118 116 107 128 121 140 177 174 167 150 133 125 120 123 128 126 129 122 136 138 124 109 114 93 90 91 98 84 100 110 131 134 168 142 140 136 133 124 134 133 122 111 119 110 126 123 114 113 129 137 139 125 146 139 140 146 135 132 143 120 130 
129 142 130 133 130 105 111 133 144 179 194 190 172 161 148 149 145 129 124 113 94 132 141 112 108 94 90 72 88 101 79 81 93 126 170 184 149 154 149 130 107 120 137 136 112 107 92 131 140 125 95 133 139 145 122 120 115 112 115 140 140 130 121 129 
149 128 133 131 112 120 121 135 150 161 165 180 168 154 125 124 136 125 122 118 125 112 138 121 101 109 94 95 88 92 118 96 98 116 151 162 152 146 138 122 130 140 139 134 109 121 124 127 134 136 126 125 115 128 130 134 121 117 119 122 136 131 133 144 
140 148 136 127 106 125 128 138 147 143 140 155 174 147 115 86 123 151 157 140 139 127 120 106 94 106 102 101 105 107 106 111 100 118 132 138 129 133 137 129 117 113 121 126 128 153 148 131 142 148 138 133 110 108 140 156 139 139 139 128 123 134 144 151 
152 163 152 150 133 145 141 154 146 136 130 145 163 154 115 79 113 149 153 142 134 136 132 117 119 110 112 115 116 132 117 127 121 117 122 123 109 122 108 106 91 103 128 136 154 156 154 157 148 156 164 144 126 109 123 143 127 142 142 147 116 135 142 139 
146 156 176 182 153 163 171 179 175 130 139 138 139 131 123 117 121 143 156 147 141 149 148 150 148 134 139 140 142 160 142 143 126 125 130 118 120 94 78 57 47 90 131 146 161 149 161 167 157 153 155 142 144 124 113 138 115 139 153 148 127 136 142 126 
146 151 178 189 162 171 178 196 179 156 132 128 132 120 139 120 116 143 152 144 167 166 170 154 154 177 155 164 152 165 164 158 154 112 117 117 99 90 71 53 28 59 118 141 165 149 144 162 163 176 147 157 143 120 110 126 143 172 173 155 131 130 124 114 
149 180 178 176 169 162 178 172 147 129 135 137 137 130 136 134 144 145 148 152 146 150 171 162 154 158 147 143 132 141 145 147 142 122 115 100 97 85 68 63 70 66 109 138 158 148 151 150 155 157 155 152 135 115 126 113 122 134 159 165 157 146 133 121 
181 176 141 148 156 149 158 143 126 124 146 132 137 135 134 146 131 103 122 130 118 141 156 159 153 154 150 125 113 105 119 119 140 138 107 109 92 90 76 90 86 81 73 104 152 150 150 126 138 165 167 151 139 127 139 122 128 124 138 170 191 162 135 123 
175 164 142 135 141 124 125 113 107 116 135 127 132 127 135 137 122 95 100 115 99 119 143 149 160 148 138 119 95 73 89 97 135 141 132 135 117 103 89 94 80 85 67 86 125 124 134 116 124 152 160 139 136 130 137 133 136 131 129 160 183 150 133 112 
141 146 155 153 134 121 117 81 75 96 113 127 113 116 119 129 119 92 99 94 87 113 124 153 182 167 150 128 107 82 56 82 124 146 163 166 155 136 105 92 99 72 84 88 96 86 99 94 100 113 134 123 123 122 118 120 124 120 127 118 122 121 129 114 
128 150 163 151 129 99 103 83 69 96 105 104 127 122 128 136 112 109 107 107 72 114 138 155 174 196 164 142 111 74 64 85 113 138 168 194 167 141 94 74 64 88 85 87 72 90 82 89 102 114 106 135 122 128 122 104 118 111 99 93 105 88 97 113 
138 155 157 139 130 131 120 87 81 102 103 103 98 116 127 129 116 107 98 86 90 105 125 157 179 175 180 151 122 79 56 88 114 135 161 167 141 129 93 70 67 58 81 96 93 91 91 108 118 112 109 105 111 108 109 108 101 119 124 109 92 103 115 118 
121 118 121 129 138 161 141 111 90 92 101 107 102 123 136 133 143 109 89 103 118 104 129 158 156 174 161 147 131 100 100 100 113 131 162 173 145 112 79 63 50 67 75 81 100 119 124 127 140 126 105 112 105 109 118 109 112 139 135 100 98 97 103 116 
102 100 118 127 150 171 151 103 83 90 96 111 120 137 156 164 170 127 100 109 127 99 131 142 146 164 150 147 146 132 144 138 137 138 150 164 140 108 91 74 63 68 89 102 108 129 136 138 150 139 130 135 134 124 125 108 116 144 137 112 98 101 112 117 
91 92 113 126 147 144 134 100 76 90 98 105 128 159 184 193 197 151 123 118 120 112 117 130 134 124 153 148 158 153 136 163 163 145 150 152 142 104 86 86 82 81 102 114 129 126 131 140 154 156 168 168 165 148 146 128 135 122 134 131 111 120 127 135 
93 103 99 121 139 138 150 116 82 81 97 109 121 150 182 203 178 174 154 126 118 103 117 126 140 136 133 165 186 168 152 149 133 139 152 152 129 90 79 109 110 116 116 127 142 149 135 142 152 166 207 176 155 160 158 141 118 127 128 138 122 132 126 133 
97 110 123 121 147 137 124 117 97 84 91 93 130 165 181 174 168 165 141 128 126 112 110 128 143 139 144 160 178 172 171 168 168 157 160 163 141 111 97 81 110 96 108 126 152 154 135 138 149 172 178 169 163 149 143 128 111 121 122 115 125 112 121 140 
104 134 162 154 148 133 133 125 110 90 93 110 136 154 149 147 127 121 113 127 138 137 144 155 157 162 156 172 182 170 182 198 188 165 161 153 132 129 109 90 86 85 101 125 154 147 153 149 149 168 164 166 140 136 122 108 90 94 97 110 105 116 120 141 
140 150 164 151 122 101 122 128 120 84 101 111 127 132 133 110 107 111 113 145 155 155 174 173 170 187 175 179 181 185 188 201 185 167 145 119 125 127 121 95 64 94 110 125 155 166 160 157 134 142 156 145 125 116 104 115 82 71 75 92 85 111 122 143 
174 167 164 141 91 74 100 120 114 95 99 106 129 138 122 108 116 114 134 175 186 182 161 155 175 194 176 176 178 180 201 187 165 132 92 88 106 114 105 90 73 107 120 135 149 173 152 155 139 126 143 130 138 127 96 107 79 61 71 89 99 91 102 140 
179 171 169 134 81 86 92 100 100 90 91 97 110 127 103 103 118 113 138 172 189 190 183 177 188 193 210 189 194 198 185 159 140 98 74 63 83 115 124 102 83 100 118 131 162 149 167 160 135 145 117 116 140 129 99 66 80 85 74 78 91 87 113 134 
169 167 151 139 113 88 104 124 121 113 91 94 101 107 99 82 112 128 151 178 202 209 181 178 186 202 169 170 181 200 180 188 148 119 92 79 96 112 121 101 84 98 119 138 150 129 142 164 148 134 118 110 109 110 94 93 76 68 55 62 99 91 107 140 
125 142 122 122 128 150 140 137 127 120 121 126 108 106 74 48 91 118 138 171 184 202 205 197 172 174 152 151 159 180 171 184 159 125 97 90 99 110 103 104 95 96 137 160 144 119 149 177 158 137 111 109 118 111 93 116 108 103 98 86 79 89 109 145 
111 118 125 125 156 183 165 150 137 119 116 119 118 103 68 45 79 113 141 166 184 198 207 195 166 160 157 147 149 151 165 169 145 133 98 118 119 106 116 107 104 113 144 160 138 131 161 184 185 153 143 148 127 126 123 125 126 118 115 107 81 95 118 133 
88 102 121 155 181 179 173 159 136 132 94 99 83 87 94 81 89 115 145 165 181 200 191 187 181 176 181 166 149 148 147 142 132 134 123 147 128 126 128 113 103 124 149 160 165 151 160 172 169 175 169 171 143 138 145 146 128 124 117 110 93 119 129 141 
87 119 138 156 178 168 172 154 142 101 86 94 104 94 84 83 79 105 153 180 181 186 171 180 201 187 170 185 169 152 178 141 133 133 139 170 146 161 157 109 91 128 163 159 174 174 166 157 168 190 196 174 152 143 155 137 145 138 117 110 118 125 139 153 
101 129 141 153 164 192 167 156 137 110 119 118 121 102 61 60 89 129 167 183 179 195 174 176 165 171 170 177 175 162 144 156 133 129 128 157 158 133 133 122 103 113 143 164 163 158 167 176 182 187 199 193 180 168 147 166 163 139 114 115 88 118 150 163 
112 131 153 159 167 168 144 138 138 128 145 149 131 104 88 56 102 135 166 186 179 185 170 151 141 154 152 161 153 148 147 149 130 121 126 124 124 118 116 120 128 133 145 150 151 161 174 175 185 175 164 169 189 173 169 177 155 128 107 104 78 87 127 131 
102 106 131 143 134 142 136 133 142 153 159 163 146 123 109 82 106 134 166 180 172 185 161 153 137 139 154 157 148 143 138 136 132 126 110 107 112 109 127 136 157 155 150 152 153 173 172 166 165 156 149 164 177 165 172 159 144 109 101 100 77 88 117 124 
92 88 89 94 96 107 118 122 138 180 185 185 157 131 126 122 115 124 146 160 176 182 175 161 137 135 144 153 140 118 123 126 150 145 106 96 93 127 143 165 182 168 144 140 163 182 187 170 153 155 177 172 159 148 153 142 144 109 102 120 112 111 100 108 
105 78 79 81 89 85 90 95 138 178 188 182 154 138 135 128 135 116 127 157 171 171 187 171 142 146 133 129 131 129 109 144 149 141 128 99 115 124 148 189 186 156 149 142 178 179 164 145 153 188 197 189 157 133 153 147 138 132 126 138 144 123 104 108 
72 62 64 72 95 94 104 123 145 163 183 165 158 129 96 114 95 108 144 178 170 180 184 179 161 146 146 142 143 159 143 143 169 157 116 101 100 120 151 183 199 161 134 141 175 179 167 147 150 168 176 151 149 142 142 141 138 112 111 134 134 104 120 129 
57 54 60 78 97 95 105 115 132 150 143 130 131 110 72 78 75 106 146 161 173 180 169 169 165 157 158 158 158 177 170 164 178 165 128 103 101 128 145 165 177 176 152 147 153 149 154 147 145 146 138 142 164 154 126 144 135 120 111 97 96 98 133 140 
63 55 58 74 87 87 98 98 124 132 112 111 108 95 78 61 77 104 145 158 178 180 169 165 164 165 168 154 170 186 167 182 194 176 140 125 132 151 165 169 185 172 158 152 149 131 154 150 143 135 114 144 164 145 134 155 132 116 105 82 62 92 123 124 
64 61 75 81 80 88 76 91 115 122 103 101 109 98 104 83 84 104 125 150 178 167 176 175 153 166 151 160 164 159 158 169 166 165 169 175 173 170 178 183 189 164 151 147 152 150 157 151 144 137 122 140 152 156 154 175 144 113 99 82 64 81 84 101 
74 86 87 74 60 68 84 95 102 104 91 129 133 113 107 122 87 101 127 136 174 178 176 171 148 155 141 139 153 174 172 157 142 147 177 196 189 177 176 180 181 181 144 124 153 152 150 148 158 158 142 130 127 150 166 182 176 140 114 93 71 81 74 82 
88 85 79 74 84 92 77 107 127 127 105 119 112 93 102 115 102 99 122 151 178 172 170 170 164 161 145 152 171 172 172 159 134 134 167 189 185 167 164 173 167 167 139 126 150 142 151 159 170 164 137 139 150 148 153 170 173 138 113 102 80 82 83 97 
73 85 92 111 108 102 90 110 132 125 105 112 94 94 117 132 120 122 131 148 159 156 144 146 170 186 181 170 166 155 130 150 136 139 166 156 161 165 169 168 181 159 145 143 125 116 144 144 156 152 142 154 140 143 148 152 155 147 120 99 107 109 113 126 
69 92 116 130 141 146 124 142 147 136 121 122 113 106 144 153 137 137 143 135 159 148 148 149 175 183 189 170 150 129 127 116 113 119 130 117 125 139 165 171 176 161 155 136 130 128 144 150 153 155 138 149 143 134 150 135 158 140 123 112 108 134 142 150 
64 104 127 160 188 204 172 170 164 141 134 131 146 143 154 176 152 132 138 144 155 161 173 183 192 194 185 164 141 121 120 98 87 85 90 95 94 110 139 164 166 157 161 148 163 182 169 164 161 157 165 168 146 142 156 158 151 123 107 117 125 155 170 177 
101 108 130 146 204 193 214 185 165 134 136 150 170 166 188 200 167 133 125 139 165 158 174 186 197 169 178 150 137 114 111 100 68 49 53 84 94 100 130 138 160 164 154 158 186 202 201 194 186 163 186 175 164 172 182 178 144 117 117 132 141 162 175 167 
113 109 143 158 189 223 186 167 147 140 115 122 161 181 184 211 181 142 120 154 159 162 172 189 182 168 170 177 151 115 97 98 87 95 87 96 83 111 140 161 156 150 153 164 182 164 173 165 159 167 190 158 159 172 151 169 138 128 130 129 131 158 173 176 
135 143 151 165 199 209 187 152 120 101 109 114 157 174 179 190 173 140 140 150 144 153 164 175 197 215 193 174 152 124 109 124 121 114 101 82 100 139 171 180 181 164 166 163 152 129 123 142 145 151 181 152 135 132 134 136 128 120 118 143 151 153 158 164 
162 169 164 167 190 189 183 138 116 93 95 111 150 170 188 190 178 157 137 141 144 152 157 170 195 216 204 184 165 140 135 138 140 123 109 82 115 150 170 177 182 168 173 164 126 102 109 117 146 165 180 158 143 132 131 125 121 111 113 148 150 151 142 134 
171 171 164 169 171 173 169 131 111 115 116 123 158 180 185 161 158 149 134 116 134 151 138 161 196 197 192 176 160 145 134 147 156 142 114 99 119 136 151 151 161 177 177 156 125 115 123 140 154 153 173 169 176 167 150 140 140 130 120 125 129 132 115 96 
160 170 164 169 199 195 176 130 109 102 135 127 148 157 158 159 149 143 125 117 126 140 139 157 161 163 192 170 142 133 143 123 159 134 112 128 120 129 154 157 168 166 172 165 157 146 143 139 162 167 170 192 203 179 150 149 147 136 146 127 116 107 86 73 
160 176 182 175 179 193 175 142 119 115 109 132 156 164 155 168 166 148 136 147 139 130 141 146 162 149 169 165 140 123 115 140 165 148 142 116 134 135 150 176 184 187 199 181 145 131 149 156 163 170 167 160 154 137 128 142 141 149 157 139 129 116 115 102 
153 165 162 151 163 168 172 165 153 125 118 129 151 156 189 192 184 170 167 150 123 128 128 137 142 135 156 165 140 124 106 129 151 140 145 129 147 154 165 174 197 200 211 190 155 133 143 165 159 170 190 154 124 110 115 120 129 147 160 135 119 128 150 136 
127 142 139 140 126 139 156 159 160 147 146 149 154 157 182 199 179 181 180 149 135 152 149 133 130 148 148 150 124 102 87 105 123 129 131 126 134 157 167 175 181 204 196 197 168 155 162 162 158 159 179 143 99 93 98 94 108 132 149 145 116 131 162 146 
82 117 122 120 96 102 113 107 137 184 188 180 171 182 176 168 170 174 169 166 175 183 186 183 156 168 157 127 100 77 51 79 120 129 132 123 122 137 150 158 161 184 195 202 201 196 186 157 134 141 137 110 91 89 87 77 103 125 146 142 124 145 164 161 
93 83 92 94 93 70 74 88 138 196 237 219 200 184 194 173 173 157 155 175 192 165 182 199 184 187 157 98 55 40 56 49 107 120 127 145 153 152 168 157 154 174 187 195 203 205 176 141 135 122 113 112 108 93 94 104 94 103 139 129 129 131 146 148 
75 76 87 94 92 90 84 102 139 181 189 182 165 158 158 163 162 152 149 149 156 156 165 171 177 165 158 124 100 77 58 91 107 115 130 153 134 131 139 155 157 162 187 196 203 220 181 146 125 128 114 112 109 90 95 102 105 106 114 117 146 153 159 146 
66 60 68 65 79 93 106 127 149 142 149 155 144 141 147 156 147 167 165 135 127 126 132 128 113 131 144 151 152 132 123 124 119 129 139 154 133 132 125 139 147 163 183 200 203 206 173 160 154 131 124 133 135 122 113 117 109 103 118 139 132 146 130 127 
48 71 65 69 79 89 116 130 142 120 126 129 131 121 138 134 137 163 163 121 105 122 121 104 103 108 131 162 159 149 143 150 139 130 143 151 146 136 139 139 148 174 189 177 174 179 168 164 157 135 146 154 162 149 143 131 123 119 132 149 137 138 127 114 
54 78 88 87 87 88 98 110 122 108 104 107 113 121 126 134 123 129 125 107 104 118 116 105 117 136 138 151 147 153 149 151 132 125 124 149 145 159 161 142 156 168 174 157 134 132 165 193 199 174 148 162 172 155 150 163 154 150 154 171 163 175 137 111 
54 81 103 104 109 92 108 109 117 109 85 95 109 101 114 141 137 105 96 106 82 107 107 111 147 145 148 151 146 172 149 152 124 110 126 136 165 161 170 165 150 165 161 149 133 131 155 199 198 180 172 150 142 151 187 185 170 139 149 181 208 186 134 101 
61 99 111 117 111 112 109 89 102 110 118 112 110 106 123 146 123 92 106 116 116 122 115 121 147 162 150 128 110 123 144 143 140 136 134 171 160 165 167 160 144 163 171 149 132 143 151 164 174 174 167 149 160 154 170 168 169 153 151 161 181 173 147 131 
93 125 137 133 129 114 115 96 105 123 149 134 113 114 124 129 125 91 102 137 138 136 141 152 169 162 155 104 96 81 103 114 139 151 171 199 188 168 170 158 144 161 177 157 138 137 147 127 128 137 142 140 148 154 172 176 182 179 166 148 138 136 160 135 
127 149 170 161 157 142 138 130 115 135 160 135 118 104 122 111 117 95 108 136 161 158 169 168 180 179 145 109 102 86 85 106 150 165 181 193 189 171 173 148 145 146 162 159 139 120 116 96 100 107 112 119 115 130 162 179 162 165 169 130 135 123 149 140 
