P2
64 64
255
217 116 118 108 83 214 191 75 42 203 180 187 131 142 151 92 81 145 208 180 109 222 165 88 173 137 61 155 130 91 165 99 76 137 188 218 196 188 151 68 187 171 212 185 116 130 146 195 100 84 39 93 68 147 150 178 185 193 159 179 190 38 128 186 
129 105 194 149 94 94 79 184 107 107 95 120 140 144 164 205 189 105 137 52 216 114 170 206 166 55 128 181 146 150 158 184 116 67 174 116 115 99 117 230 169 75 56 157 192 201 119 188 161 44 111 109 181 172 103 197 204 89 170 169 76 144 96 113 
146 171 132 120 167 177 164 117 28 149 147 126 131 133 215 183 92 180 149 204 105 163 73 53 143 100 112 114 146 200 220 91 122 153 96 115 91 224 85 91 196 123 171 128 212 129 179 117 189 91 72 158 129 182 152 141 173 164 163 75 178 201 113 163 
128 99 105 136 72 196 64 194 64 90 106 104 105 134 140 160 147 165 202 136 160 87 177 133 64 109 139 62 162 92 145 132 134 175 172 95 191 142 202 80 73 141 199 77 181 151 226 143 117 199 134 164 160 142 65 67 166 93 105 60 219 214 199 115 
93 138 97 203 118 136 152 152 110 149 207 141 122 146 178 151 54 171 107 130 83 144 188 225 52 63 138 216 189 87 187 153 81 106 132 155 190 98 161 132 62 211 188 107 108 128 73 148 92 130 165 202 166 182 164 186 84 182 186 232 186 66 118 172 
179 86 91 103 189 193 185 63 83 149 117 66 91 146 104 86 178 55 197 93 172 151 187 116 229 110 89 187 166 140 120 101 164 212 170 73 168 171 81 156 97 128 87 130 120 60 113 86 136 144 156 150 71 216 179 114 72 178 85 114 104 89 123 99 
87 168 86 83 181 187 178 170 91 174 196 137 118 146 188 147 121 157 135 117 110 118 85 95 93 94 153 185 159 75 158 171 90 116 148 118 170 96 80 164 112 138 104 158 176 93 94 176 129 158 51 95 98 99 86 116 160 169 155 180 176 171 140 167 
105 85 188 128 171 146 109 99 186 179 197 147 144 66 161 102 108 94 159 158 55 80 110 171 57 86 72 215 136 134 161 81 114 169 193 138 78 107 133 78 115 109 193 92 201 66 89 119 123 108 127 168 146 176 179 153 205 160 120 138 191 30 182 186 
74 68 91 122 174 155 172 196 181 152 142 182 71 64 162 78 184 171 171 134 203 182 165 133 110 128 152 127 101 109 189 136 92 115 123 183 102 43 106 219 142 157 161 54 130 179 200 153 107 130 119 55 78 83 181 88 170 100 83 85 152 109 132 142 
101 193 136 200 165 169 111 84 160 202 186 178 141 182 177 176 87 113 142 140 180 152 138 76 102 128 53 144 69 88 110 141 190 99 220 175 95 102 107 122 113 137 58 122 75 67 76 165 157 143 134 199 148 121 98 72 142 130 102 129 184 100 180 186 
160 195 135 159 126 163 143 128 168 146 170 149 116 88 63 175 81 107 90 132 160 211 72 143 180 133 54 53 156 126 85 200 122 213 62 186 177 201 124 235 97 49 144 167 176 175 112 190 203 143 131 130 163 126 162 164 128 67 130 158 88 134 63 108 
93 70 237 173 192 187 56 145 154 205 113 104 129 149 109 88 84 181 53 203 101 108 136 143 98 121 118 113 141 158 216 157 179 106 153 184 55 161 158 82 135 69 128 107 187 179 178 119 142 151 162 92 59 133 131 47 161 106 161 152 146 179 138 137 
54 92 85 141 82 145 149 136 150 131 172 185 208 138 187 163 42 163 162 106 157 85 97 131 165 198 119 93 182 107 195 64 50 137 172 82 173 101 181 164 75 182 102 202 152 180 88 112 175 84 101 93 172 173 218 107 119 199 62 138 76 182 94 110 
135 199 134 122 136 124 108 165 141 107 116 135 122 110 115 95 121 125 140 136 96 194 207 83 65 162 112 67 99 28 171 90 124 59 172 141 120 97 173 107 125 57 108 98 148 91 158 104 148 134 183 134 216 154 191 44 185 126 145 134 175 97 105 168 
202 129 79 78 161 154 206 57 102 165 118 72 47 183 99 108 179 107 169 89 205 113 176 137 188 95 24 129 156 145 164 109 174 183 112 89 139 167 114 142 103 117 79 149 153 100 121 26 104 160 135 173 123 218 176 63 60 174 57 138 146 98 133 89 
112 91 130 127 94 126 125 104 116 124 147 143 165 218 67 111 138 92 103 100 67 164 126 130 86 209 158 130 114 146 148 119 71 79 171 161 66 115 167 117 125 135 175 184 128 141 74 145 109 146 201 108 42 105 186 95 169 135 215 84 60 126 135 94 
116 158 136 150 75 180 218 87 116 153 146 93 143 85 167 108 118 72 175 137 118 105 159 134 138 119 37 150 108 118 103 194 130 178 166 143 168 131 166 99 214 125 173 199 140 95 145 157 122 174 149 189 138 54 212 100 162 77 142 159 199 86 68 154 
76 151 103 148 89 51 179 141 144 100 152 140 112 113 172 136 138 120 74 120 125 97 93 152 158 174 138 190 173 143 197 83 179 52 102 198 155 94 96 163 113 98 131 167 133 45 185 81 132 51 145 185 220 39 43 141 226 138 134 187 181 59 120 109 
137 132 141 157 116 180 201 91 209 158 85 114 134 44 153 112 106 92 200 220 224 165 206 91 140 188 176 216 121 113 176 213 100 113 52 127 92 192 182 190 166 219 161 164 181 77 101 177 58 190 122 138 90 144 187 188 126 149 86 137 85 115 132 146 
160 163 163 98 103 184 169 118 158 150 192 138 130 158 90 182 152 157 51 105 160 32 109 85 175 147 173 83 125 143 118 110 67 191 77 115 198 73 191 84 211 113 165 98 235 71 93 209 200 126 134 148 182 165 184 103 137 150 95 190 174 86 121 168 
129 139 182 100 206 179 108 122 124 86 86 96 108 171 152 113 108 166 185 132 95 201 149 141 92 74 138 114 93 124 155 146 127 151 159 227 116 183 56 208 106 98 170 108 81 124 201 135 152 129 192 124 46 162 104 171 74 139 200 171 82 74 167 189 
192 157 196 197 101 107 185 185 64 86 77 161 114 172 181 173 195 217 124 129 199 70 135 194 66 203 170 156 141 169 140 150 94 113 84 139 54 48 111 173 142 88 65 111 161 96 93 49 192 182 173 177 108 76 176 199 113 48 161 147 72 100 63 176 
149 166 117 84 220 165 137 106 172 178 197 37 84 184 212 188 112 151 165 96 102 145 203 166 88 166 186 32 189 167 81 163 117 61 167 85 97 131 205 201 195 188 170 72 171 190 163 204 80 93 129 156 113 57 64 106 77 170 134 177 199 237 122 146 
94 64 152 174 82 68 139 171 57 50 87 207 206 126 195 114 94 182 164 127 92 167 161 100 80 104 197 90 183 90 66 121 106 129 98 100 133 147 188 195 166 192 61 154 146 84 153 133 72 136 97 138 132 127 207 165 93 141 128 185 73 61 145 181 
103 177 137 153 67 93 157 62 49 87 176 164 176 91 108 162 99 121 80 228 108 93 177 88 211 89 207 135 194 112 151 107 88 158 158 146 144 153 174 173 152 135 140 165 79 147 136 124 133 121 150 61 92 66 99 174 141 165 66 195 183 96 73 150 
132 191 82 53 174 105 129 65 173 174 189 68 92 138 226 149 122 173 127 77 81 99 171 187 87 195 175 101 196 175 107 134 120 97 117 122 48 174 181 204 193 228 153 122 202 179 184 194 64 168 190 200 125 90 31 147 76 146 113 195 222 176 166 137 
81 95 162 106 92 70 173 129 97 147 55 164 117 170 138 152 137 175 117 88 182 206 126 116 109 147 202 137 128 137 179 113 151 136 115 103 129 161 73 143 100 78 149 171 168 115 136 168 91 93 179 100 125 102 15 132 98 122 54 178 157 120 96 188 
177 170 186 65 107 184 90 168 150 180 111 171 196 131 145 97 128 159 100 75 137 199 137 53 105 88 205 106 113 99 218 126 191 129 31 103 167 196 151 84 118 92 82 125 115 156 61 139 40 122 111 173 87 155 135 111 171 156 203 148 154 66 121 152 
208 140 223 158 101 99 92 179 114 104 93 169 158 201 50 98 121 81 124 77 162 129 82 167 94 206 129 157 144 157 127 217 125 51 166 181 121 118 114 176 166 145 70 175 153 95 153 163 123 72 103 111 34 143 44 135 110 188 143 105 176 194 78 78 
107 92 117 184 133 169 146 159 180 113 137 86 187 113 119 216 96 135 107 200 116 156 117 219 153 58 176 121 133 97 153 221 219 96 54 171 163 143 78 183 165 96 124 119 153 196 78 184 179 91 181 162 108 131 127 67 164 113 57 145 210 195 159 155 
128 97 131 160 117 202 122 215 170 109 149 125 241 188 122 127 98 155 97 66 95 197 198 213 89 71 188 144 104 70 187 75 129 175 84 146 87 161 103 193 131 190 141 54 169 147 163 177 132 157 180 169 114 163 151 119 148 117 71 93 163 118 82 106 
104 86 197 136 171 87 94 189 106 92 105 149 100 108 187 101 138 85 184 144 169 129 192 113 94 149 145 136 172 112 142 156 180 98 142 173 124 187 132 81 70 127 152 61 142 55 115 134 109 152 101 189 186 97 100 140 135 116 138 105 150 119 83 67 
144 166 181 129 122 163 101 104 62 184 120 117 188 104 142 75 196 166 161 109 192 126 67 173 190 165 168 153 148 175 132 128 139 173 103 201 113 86 70 164 127 48 132 78 99 148 133 184 119 166 196 30 45 121 145 140 98 57 169 73 121 53 222 165 
203 156 96 151 210 64 156 181 110 134 91 93 134 87 111 122 222 200 195 197 169 35 158 216 218 171 76 125 140 163 69 105 40 113 77 179 116 193 192 195 120 113 156 94 76 185 91 205 132 159 108 170 123 158 135 137 83 162 106 117 70 190 189 60 
113 199 157 172 107 61 177 150 79 134 101 226 173 103 198 92 188 123 161 91 66 171 78 109 112 186 147 210 124 104 138 109 117 54 199 82 120 160 88 204 128 208 127 141 100 157 137 61 180 138 172 118 93 133 190 144 90 160 171 105 210 117 148 120 
63 183 217 162 202 76 111 162 156 129 99 33 161 120 199 154 134 150 206 141 172 194 47 132 203 92 199 174 168 126 131 172 141 93 70 112 172 86 75 137 117 154 45 126 136 153 77 94 88 184 187 159 167 94 84 132 201 144 30 147 107 87 115 93 
188 146 165 196 63 168 106 105 199 172 130 157 189 105 151 125 169 111 83 188 115 177 67 85 191 167 67 62 165 169 154 115 165 152 45 130 145 136 193 63 192 134 83 149 164 99 144 113 95 179 129 113 101 215 186 168 215 197 104 190 148 212 221 96 
168 116 186 127 208 76 102 179 149 77 178 120 230 175 131 198 170 161 148 121 36 39 166 112 87 112 151 145 192 62 107 165 83 89 36 217 78 145 148 133 197 67 216 146 191 99 178 88 55 154 157 155 164 153 189 184 115 126 156 154 122 165 164 128 
95 175 177 153 122 198 143 63 203 177 176 154 129 133 175 153 105 182 171 124 146 130 101 93 154 136 87 109 74 143 121 161 155 124 175 191 65 105 178 112 124 111 28 194 163 152 107 220 142 133 79 124 93 137 105 70 164 122 78 122 163 155 162 156 
171 149 145 55 58 131 53 157 145 147 202 207 149 153 177 26 119 166 49 174 143 181 111 198 145 164 151 111 144 138 97 70 104 170 168 79 56 131 211 41 112 60 195 149 146 119 30 109 168 189 149 112 165 124 62 139 119 158 96 172 96 108 98 144 
125 162 126 212 165 178 110 36 174 112 109 110 184 157 208 76 104 135 71 57 53 207 93 122 217 50 155 79 219 167 128 130 178 111 93 200 168 138 155 97 114 173 180 100 164 140 124 148 146 137 119 167 123 50 108 57 122 131 161 137 144 177 158 64 
161 197 151 133 156 148 97 134 123 145 157 97 165 197 96 206 140 95 126 138 38 143 112 99 94 192 207 212 160 215 81 122 165 201 207 122 86 200 189 115 87 63 124 97 215 172 193 141 218 167 159 178 81 111 196 66 201 111 136 95 134 184 163 132 
197 121 64 103 141 191 149 96 175 165 90 196 167 95 166 90 52 141 138 57 155 179 217 174 199 207 108 177 200 170 145 59 164 171 189 77 121 65 91 83 193 140 133 186 179 138 171 146 78 138 166 93 167 123 139 133 180 123 143 122 92 85 111 92 
61 210 214 77 170 192 92 193 129 116 148 148 58 167 198 149 169 214 234 80 176 186 186 176 81 143 151 147 57 48 91 94 90 160 195 193 165 207 143 148 138 39 62 140 90 197 145 168 135 174 173 116 149 126 116 151 95 105 97 128 167 81 125 97 
160 77 77 140 121 117 149 152 222 224 218 211 119 163 186 160 219 63 110 119 144 136 75 65 161 51 170 129 173 195 166 101 133 178 80 123 156 97 172 122 118 101 189 164 186 95 123 84 143 94 101 125 158 143 33 96 129 153 102 60 107 166 164 143 
116 102 101 183 178 96 106 143 147 130 82 86 128 163 83 106 152 152 150 187 151 202 140 135 75 186 82 131 226 133 120 119 192 124 130 138 191 141 64 179 160 129 90 114 193 181 104 46 187 204 152 108 183 115 100 123 139 188 204 44 197 138 54 153 
146 194 52 128 125 220 146 57 156 214 56 199 211 117 121 106 103 147 63 105 153 161 161 174 202 201 42 189 214 174 199 55 108 183 167 133 85 45 131 102 176 180 165 186 213 110 171 138 64 77 156 106 200 125 170 81 161 143 173 128 89 118 141 100 
116 181 132 89 94 131 157 127 176 155 218 122 118 55 193 76 130 181 157 81 160 158 152 153 124 209 103 59 155 134 162 56 153 193 154 47 51 189 191 159 71 173 126 78 118 128 160 123 70 184 138 77 199 201 75 131 91 99 116 107 112 159 159 191 
100 112 108 183 126 183 167 188 98 136 151 101 118 175 88 167 44 128 110 179 145 145 112 199 99 162 118 99 132 211 115 138 125 175 180 141 159 156 218 137 165 50 98 204 121 119 127 144 207 219 114 134 169 94 113 62 191 51 102 172 50 215 125 181 
63 180 123 140 156 162 103 88 142 115 177 132 190 95 97 143 127 171 115 144 194 145 25 51 180 190 184 100 202 146 75 111 134 171 150 94 201 167 100 181 210 99 142 112 46 90 106 105 174 170 196 203 172 156 55 185 179 195 154 85 122 179 174 122 
123 178 126 120 51 136 88 51 128 96 97 168 105 165 106 189 218 66 101 127 128 143 139 64 177 117 77 55 201 195 88 104 152 147 123 96 82 165 136 101 74 112 97 184 122 183 166 152 139 65 158 119 137 179 172 94 142 207 116 149 161 174 107 59 
167 176 190 157 61 143 198 186 58 82 63 89 58 160 175 174 163 176 135 139 192 82 132 157 77 175 186 135 145 169 203 137 113 86 137 120 102 110 138 127 156 101 135 69 209 71 61 85 210 205 214 146 107 127 188 224 119 66 152 140 111 117 76 197 
99 140 108 106 116 170 136 159 124 185 140 178 107 163 204 65 106 130 63 182 61 132 111 187 171 129 97 208 119 158 104 51 154 203 99 200 145 178 160 102 151 126 210 150 104 97 80 113 78 84 109 161 169 165 96 84 185 131 101 76 164 86 125 148 
175 36 149 147 99 153 119 125 151 174 173 157 118 184 167 199 106 94 182 184 114 165 108 183 174 119 189 149 150 152 123 76 78 191 68 105 111 147 169 209 61 147 217 150 99 106 158 102 112 159 63 162 136 190 170 162 111 208 109 81 160 146 110 116 
226 152 173 64 169 118 126 183 123 100 151 159 129 112 98 218 125 87 187 140 122 101 151 198 202 80 71 176 172 165 97 189 148 58 150 104 159 173 111 163 198 70 217 194 70 146 101 88 130 124 107 157 188 189 204 194 188 59 175 185 182 239 43 154 
44 82 169 118 117 102 164 102 157 177 192 198 106 117 37 152 114 102 188 102 104 96 144 94 156 123 193 124 85 168 159 113 103 154 180 205 42 54 175 216 206 86 177 128 41 102 87 196 140 72 161 165 61 178 215 114 155 81 71 156 68 118 143 235 
189 162 173 205 200 137 168 157 64 78 160 60 151 175 162 120 194 112 152 112 123 163 131 85 103 122 147 180 36 132 112 153 35 73 87 187 187 176 153 64 88 164 203 148 76 135 101 67 141 83 193 67 195 58 68 126 132 115 114 160 134 177 181 173 
124 154 92 181 91 51 165 132 148 94 167 221 221 14 93 157 188 198 118 187 152 34 133 133 183 148 74 181 147 106 174 183 121 141 71 24 96 136 94 175 204 232 159 226 188 106 187 187 191 194 65 124 164 152 105 60 78 98 90 179 175 151 207 180 
94 140 117 171 149 154 201 137 129 40 162 133 109 211 127 113 105 184 112 161 91 202 154 91 140 121 168 86 109 215 198 23 49 170 232 196 88 216 190 72 112 95 175 195 95 213 183 45 191 212 98 150 134 63 130 94 110 87 168 142 181 213 195 64 
84 57 157 136 147 180 192 140 174 194 79 69 199 120 196 174 159 151 177 135 175 143 132 112 130 91 63 123 136 200 107 92 91 137 49 133 116 222 207 202 107 98 130 199 214 153 44 152 97 83 107 95 165 56 191 37 82 120 143 110 132 118 174 180 
200 123 193 165 69 117 109 197 171 74 196 138 116 167 188 82 163 86 116 158 70 69 143 189 237 236 230 214 104 135 215 192 162 60 117 200 157 117 74 52 127 63 187 134 180 153 171 139 115 180 60 143 168 67 213 165 148 107 140 132 136 130 96 101 
178 211 106 105 181 133 174 102 139 214 146 87 34 147 168 150 127 188 133 96 81 122 169 176 75 156 187 78 187 195 124 139 99 99 113 75 84 173 177 171 190 226 182 99 174 223 224 191 48 105 139 189 75 103 48 144 59 175 150 167 179 171 160 165 
150 118 108 79 188 177 58 85 88 205 109 57 105 238 172 178 136 70 122 172 211 133 62 166 145 111 127 99 142 85 155 74 59 109 107 95 124 125 132 181 137 180 137 203 133 126 138 50 172 168 86 129 88 115 125 149 192 161 83 176 99 179 79 72 
92 142 178 153 159 137 133 169 191 60 182 185 161 130 139 99 133 106 152 104 132 36 124 160 173 121 147 216 150 73 82 163 138 85 132 112 144 116 85 89 213 185 154 130 132 153 159 91 88 168 122 93 84 145 100 125 126 125 221 144 140 104 141 74 
