P2
64 64
255
217 121 119 161 98 83 215 209 162 53 42 182 195 212 169 131 162 169 107 54 81 146 186 204 159 109 189 184 142 107 173 145 116 122 147 130 96 129 84 89 76 164 193 194 194 196 193 197 129 82 187 177 167 166 148 116 136 165 162 168 100 81 55 69 
136 116 140 150 123 122 109 91 110 142 124 111 123 137 139 132 151 148 168 181 165 118 122 146 90 210 107 126 162 176 170 79 122 153 170 125 143 139 164 164 121 70 146 160 129 156 103 138 170 170 174 100 61 89 159 182 192 167 136 181 157 80 112 103 
152 133 146 163 113 134 119 116 121 109 91 154 148 126 127 116 139 139 152 153 142 170 142 140 153 123 148 86 112 148 135 93 127 116 115 163 157 154 184 143 95 125 112 137 85 126 159 106 125 139 208 86 125 144 137 188 161 128 148 138 189 104 92 80 
181 156 126 137 131 118 153 113 140 92 86 152 138 139 128 191 115 169 166 156 155 183 136 169 177 155 111 111 87 91 130 116 122 141 110 130 131 166 126 109 133 180 149 98 131 104 141 144 115 101 152 143 160 141 120 209 132 183 146 140 174 136 126 101 
138 130 81 98 116 90 179 122 114 141 67 93 118 111 101 92 118 149 133 158 139 175 172 159 136 162 111 141 147 131 49 113 128 161 85 176 99 123 127 145 127 161 156 130 130 181 136 170 139 79 69 143 178 157 88 171 144 150 185 122 94 177 135 155 
93 139 82 121 178 118 140 186 133 129 110 142 152 155 118 122 157 162 149 123 54 166 158 94 123 83 129 141 208 189 52 65 91 143 194 189 80 148 168 147 81 103 133 161 155 190 80 151 166 149 62 200 189 171 96 108 102 106 120 149 92 102 132 159 
174 91 114 129 116 186 175 178 165 106 73 149 139 138 79 99 153 105 88 112 169 96 177 156 116 160 136 184 162 130 205 112 101 117 167 163 142 145 143 117 171 190 161 152 100 177 159 116 135 162 142 140 100 130 126 138 89 83 95 91 135 127 144 168 
111 156 137 118 79 184 166 149 145 119 104 138 185 127 126 81 162 155 139 139 191 144 135 132 104 152 132 119 128 130 118 136 82 137 170 177 142 163 191 166 121 103 122 121 91 167 154 89 122 140 92 117 92 85 168 199 129 115 106 127 153 150 118 133 
112 167 138 131 102 179 141 153 130 124 128 151 185 189 155 78 139 142 106 110 124 137 139 122 142 105 107 95 81 127 66 113 121 135 169 178 122 182 155 151 95 122 167 133 135 110 109 128 85 103 137 108 138 102 135 185 110 127 102 174 101 131 94 84 
72 95 145 158 95 170 161 143 169 100 199 175 150 149 138 134 118 136 132 109 99 128 125 166 154 88 115 124 111 150 67 96 83 146 181 135 181 141 121 93 73 174 190 145 146 80 124 132 90 107 141 109 163 145 92 185 65 93 97 138 103 132 159 117 
74 60 102 133 87 174 148 153 142 189 181 153 158 127 176 71 66 152 129 84 184 163 165 133 122 203 133 189 118 127 110 115 175 77 109 101 93 159 145 151 92 102 134 110 166 102 62 102 107 216 142 179 143 107 78 130 169 208 154 144 107 115 125 119 
64 188 164 146 152 155 192 141 87 94 166 163 161 146 151 125 180 197 156 144 119 114 162 151 137 165 140 142 82 104 122 123 112 94 114 79 104 138 113 133 181 109 155 166 161 92 109 112 118 122 122 123 101 83 141 85 101 99 133 155 137 134 142 136 
162 190 116 150 178 144 195 165 140 115 182 126 146 143 121 150 143 93 141 133 69 119 112 116 152 197 196 123 99 110 185 116 103 105 82 146 96 133 122 162 128 135 112 151 199 111 155 116 147 157 100 80 112 119 183 113 146 124 119 149 185 133 130 131 
153 163 153 151 184 123 142 140 151 147 197 155 159 124 129 119 113 93 119 159 81 110 107 92 165 146 133 114 86 79 191 129 122 99 119 171 116 129 141 158 80 147 120 144 174 102 180 163 169 163 128 77 127 133 167 147 169 163 121 165 205 134 152 111 
75 92 139 165 162 156 177 100 107 134 157 203 125 109 105 146 128 70 118 113 89 140 89 130 187 109 92 107 126 152 116 135 144 128 147 149 153 200 172 152 176 89 168 163 142 84 156 157 141 97 125 98 117 121 136 167 166 136 153 125 140 138 183 136 
54 109 117 109 137 82 147 146 124 165 150 133 198 142 170 208 117 126 143 172 42 170 165 141 118 157 91 127 125 127 165 169 129 103 122 182 144 187 118 81 50 157 151 149 94 173 147 169 182 150 75 189 128 154 190 152 179 109 68 95 175 85 76 132 
145 186 149 101 122 156 166 137 156 179 136 129 85 117 136 137 111 116 112 81 97 122 116 157 163 108 180 175 162 106 76 149 134 110 113 89 64 166 136 105 109 72 151 190 156 134 126 177 180 134 115 90 100 90 128 149 89 101 124 145 122 147 161 167 
164 128 93 119 105 164 165 188 161 122 115 135 90 112 108 74 152 100 70 127 177 101 135 185 113 159 149 174 165 96 127 99 95 105 158 162 122 143 115 126 107 156 146 128 125 157 159 130 154 156 122 128 73 98 156 130 89 118 105 72 135 122 127 179 
134 94 118 114 128 161 167 125 122 116 101 153 144 119 111 112 186 111 79 134 200 76 166 150 114 166 133 149 154 118 178 147 134 119 124 158 140 147 175 160 137 138 173 166 104 141 150 110 133 143 150 158 147 130 162 114 97 129 109 109 115 122 153 168 
102 90 143 153 143 81 110 108 98 125 119 127 155 168 157 143 202 97 79 120 144 117 143 156 120 55 154 93 104 124 86 188 185 133 131 116 155 135 136 128 92 78 139 137 136 95 112 121 139 114 148 156 170 149 186 133 153 85 132 165 111 137 158 187 
116 152 116 156 135 75 189 180 128 92 116 143 127 114 117 143 74 131 154 115 118 85 166 167 164 118 74 131 170 152 138 112 50 103 131 108 99 78 98 164 130 156 145 146 157 168 120 147 134 100 214 108 76 148 189 140 70 133 137 174 122 156 123 146 
101 128 134 93 152 88 79 144 141 106 124 95 146 173 157 98 115 181 161 133 128 85 87 134 152 124 111 114 137 140 160 149 157 156 162 162 140 134 135 71 175 102 107 129 179 167 102 129 133 146 127 119 147 144 169 129 86 152 157 108 141 82 105 168 
70 140 174 134 153 116 131 128 129 126 178 177 152 143 132 139 97 136 134 125 117 115 130 148 156 179 141 155 150 78 125 197 189 164 181 148 104 160 134 126 149 96 64 87 141 86 145 170 166 188 139 176 130 161 164 130 77 122 142 151 105 135 115 159 
151 154 153 142 115 85 155 174 170 91 199 178 127 106 151 97 102 143 123 133 99 101 169 158 149 223 162 151 127 116 123 198 188 203 168 85 121 159 169 138 53 119 72 59 114 128 139 194 135 145 187 166 126 127 133 211 91 88 119 148 94 177 150 159 
178 153 166 159 92 95 166 184 158 120 164 145 158 175 149 125 161 140 143 171 142 151 103 71 106 150 97 109 94 84 162 161 190 168 86 107 150 130 92 108 90 181 145 129 119 183 104 140 131 106 188 138 179 163 123 221 126 76 136 171 185 138 128 166 
129 128 189 158 103 206 182 121 98 94 124 110 92 150 84 108 167 112 124 124 108 157 193 164 126 95 196 142 149 150 92 67 138 88 91 93 114 141 167 158 127 164 163 140 196 116 172 129 88 190 106 92 170 146 139 81 146 179 159 137 152 135 196 156 
169 185 181 203 171 105 143 176 164 157 89 78 71 103 123 86 187 191 187 155 178 228 147 127 133 178 81 122 157 189 88 182 152 153 144 139 161 142 171 146 120 130 120 120 148 62 83 137 132 165 150 107 89 114 115 150 88 75 53 70 207 162 160 164 
112 196 147 165 107 141 117 141 129 133 149 177 126 145 106 55 181 187 149 141 124 181 174 153 99 137 88 143 169 177 83 184 179 131 118 143 152 150 108 142 128 64 106 149 123 58 126 169 135 186 154 139 171 150 79 161 141 147 162 154 141 148 142 179 
117 145 160 122 114 140 107 111 124 96 111 141 182 159 114 77 160 177 170 119 119 164 175 135 78 93 123 154 170 106 119 169 144 145 72 188 171 85 130 120 133 100 105 126 91 108 177 191 207 170 195 214 143 154 131 126 143 142 182 190 106 131 145 117 
78 107 124 184 170 96 107 121 120 177 60 98 70 133 211 198 173 154 152 102 96 178 145 135 115 96 153 151 112 94 80 101 124 151 90 179 96 81 107 124 125 147 133 132 152 103 141 190 164 168 135 180 132 144 153 146 91 114 141 141 73 146 112 95 
103 185 177 163 151 67 107 106 152 72 49 98 180 180 173 176 110 92 163 151 99 126 82 122 179 108 64 176 148 96 211 110 152 151 111 194 108 176 190 100 88 167 190 130 153 144 151 165 184 179 152 125 140 138 169 79 131 150 121 107 133 120 97 104 
115 190 150 119 86 170 107 142 141 79 139 145 198 173 67 93 143 174 201 161 105 185 122 143 92 113 124 171 187 154 95 187 173 160 102 187 198 123 131 136 93 84 109 158 121 90 147 201 198 174 202 198 195 182 94 165 191 183 142 165 62 140 185 185 
122 161 162 116 113 111 65 120 159 98 145 176 150 111 145 64 181 170 175 175 125 175 149 94 88 160 136 145 125 127 132 186 188 170 154 115 143 152 131 107 116 112 112 104 85 112 152 124 155 143 120 113 156 116 122 159 159 192 171 186 99 85 155 122 
126 116 149 142 80 113 114 139 162 132 118 154 142 136 190 135 167 154 167 148 91 168 107 110 98 139 171 146 118 114 107 134 184 191 120 92 126 133 174 133 177 162 118 116 95 163 144 95 88 80 84 110 125 102 159 111 130 131 150 159 70 81 133 132 
137 131 142 122 85 116 152 141 132 179 134 164 125 113 174 196 156 150 136 103 127 140 109 93 78 122 152 181 131 63 101 89 157 172 98 106 75 179 181 165 172 150 113 98 117 156 207 185 107 67 128 125 111 105 143 104 160 107 96 137 78 95 82 117 
208 144 190 165 141 101 97 48 128 150 114 115 82 110 163 158 208 145 95 112 121 93 121 98 86 162 119 111 123 149 94 158 88 94 179 144 173 147 168 206 125 73 144 125 176 121 120 125 150 194 166 174 131 82 176 153 143 173 158 143 123 98 105 144 
108 99 132 130 166 130 140 155 164 143 182 133 161 136 80 188 109 119 157 186 101 124 126 145 146 124 137 146 151 206 139 98 147 140 108 127 104 128 184 199 198 98 70 111 191 169 156 135 145 169 173 83 99 105 137 146 165 105 118 199 178 73 147 186 
89 91 120 167 174 125 147 135 137 200 182 130 155 155 111 192 117 122 152 92 86 123 94 133 129 100 140 188 174 172 103 73 131 120 109 93 63 136 150 133 132 158 113 129 152 131 166 149 139 173 166 130 149 123 74 181 158 141 155 159 187 137 170 167 
108 90 118 171 171 140 165 109 158 197 137 121 116 124 151 140 146 126 165 96 114 129 108 125 134 139 182 162 210 190 62 127 182 132 85 91 114 166 189 130 148 130 137 156 166 97 190 174 142 150 97 161 152 64 59 175 109 107 152 155 120 168 177 131 
104 90 150 185 169 190 107 95 138 174 115 80 86 85 168 113 116 150 122 113 173 112 146 179 135 203 147 175 171 116 90 151 164 153 140 148 159 164 180 166 165 100 133 173 171 141 170 140 104 117 79 131 137 131 81 139 70 59 118 145 109 161 140 168 
144 181 175 137 88 122 145 116 83 101 62 176 153 102 114 188 85 151 153 80 196 187 153 171 137 192 122 88 118 196 190 153 137 134 141 148 157 148 144 137 139 182 124 101 164 113 110 105 135 165 127 80 66 123 92 99 150 147 168 165 119 179 172 168 
210 175 122 104 153 186 95 153 183 184 104 156 124 73 104 144 120 116 121 141 209 178 171 192 169 153 81 105 173 194 205 179 114 94 127 150 166 124 98 102 65 113 101 108 188 135 153 162 193 197 107 126 172 134 84 107 173 133 141 183 131 143 142 158 
161 171 124 165 151 133 74 114 182 150 79 139 125 134 155 159 131 148 134 139 157 163 136 129 130 135 133 116 130 149 89 184 156 162 198 105 138 160 137 79 105 78 120 169 129 107 181 116 152 157 131 192 151 149 140 134 153 154 120 115 184 172 140 145 
129 167 154 144 148 157 66 141 175 158 118 145 145 106 169 150 114 167 184 127 202 169 163 122 109 74 121 103 92 97 148 124 148 185 174 82 108 146 179 127 113 97 143 109 109 109 136 113 129 162 111 169 164 121 166 100 185 125 101 105 107 186 161 153 
72 181 169 195 192 200 93 115 142 149 178 129 122 76 72 138 110 139 189 160 162 175 185 163 170 167 149 104 98 132 191 133 147 170 149 138 128 144 159 175 149 111 127 78 110 162 109 90 100 107 152 173 95 76 121 126 148 109 64 74 84 173 176 170 
188 176 168 112 186 63 174 105 93 111 199 179 125 64 140 189 140 140 154 131 169 121 126 118 194 115 156 64 103 138 191 183 119 76 65 165 193 154 171 116 165 154 66 70 121 145 160 165 161 90 192 153 110 136 175 164 104 117 131 119 95 153 144 82 
166 126 187 138 127 196 91 93 91 180 148 94 111 148 136 230 188 164 121 189 164 163 155 156 107 49 76 152 144 118 108 120 109 183 171 208 117 130 141 155 117 80 67 109 173 94 141 128 121 133 212 103 143 208 125 194 121 155 171 95 54 143 163 146 
116 144 150 138 174 164 147 133 89 109 183 122 149 146 125 146 149 136 179 177 120 155 178 146 125 141 94 108 105 104 95 136 102 115 153 124 122 129 147 152 154 95 124 151 171 114 90 165 149 93 157 99 127 147 163 168 146 129 108 137 125 125 142 165 
141 177 153 122 146 108 166 122 131 115 164 141 153 147 173 158 172 196 166 140 124 159 159 138 124 150 145 140 138 126 157 134 113 84 133 79 138 130 123 120 147 103 154 176 117 72 94 92 159 115 117 82 128 131 156 137 123 82 84 162 133 144 128 120 
158 162 124 123 80 59 119 105 116 159 164 139 167 184 204 134 157 182 166 70 112 177 104 128 179 140 149 142 136 159 164 175 152 139 118 119 147 115 104 79 110 156 144 118 76 78 110 154 146 62 103 94 141 161 157 161 154 107 74 116 136 169 151 118 
125 151 107 114 197 165 155 101 102 62 174 110 117 84 135 184 164 173 141 90 104 151 115 127 72 53 189 143 82 124 217 86 166 101 104 219 158 125 157 142 178 124 97 130 171 168 159 124 148 114 114 170 187 140 120 164 157 101 156 148 146 135 105 106 
134 188 184 142 132 173 152 114 89 111 109 158 171 133 96 162 164 129 119 187 162 126 139 110 124 51 141 148 95 109 128 170 197 156 208 151 186 120 105 162 181 169 195 180 117 108 175 173 136 109 81 63 81 71 97 188 157 153 185 179 185 138 147 143 
159 186 138 80 120 137 166 151 133 127 163 160 160 120 183 160 143 113 141 153 96 123 112 115 121 93 163 193 151 176 149 177 167 126 202 167 207 156 120 87 152 166 216 171 121 87 110 160 104 105 165 97 118 138 174 189 178 159 185 142 126 125 164 143 
147 184 135 136 87 144 194 165 134 123 168 145 114 94 144 174 106 137 165 111 97 171 164 95 90 171 171 195 162 170 165 160 117 122 160 154 150 169 138 105 99 187 139 159 109 100 124 128 125 118 196 133 106 159 187 160 152 143 155 179 95 108 163 132 
70 175 148 148 101 163 192 110 112 173 132 116 115 169 130 83 117 188 177 160 190 200 188 186 86 144 173 195 179 166 98 133 173 169 157 110 85 95 83 98 110 162 140 151 166 170 181 158 121 159 147 83 101 154 150 98 151 153 161 170 127 152 155 167 
160 84 64 84 163 121 127 118 167 177 222 195 198 167 211 119 161 168 163 190 219 81 99 175 125 144 147 120 58 68 161 52 155 153 131 173 192 154 165 129 133 159 115 113 144 156 127 127 183 154 118 129 164 161 167 186 114 74 142 116 143 99 77 102 
131 107 105 139 165 175 125 121 139 166 138 134 108 102 106 124 135 111 100 111 136 117 117 152 193 152 176 150 141 119 77 154 129 116 137 206 143 121 98 145 150 120 127 130 147 212 122 113 101 162 127 123 128 104 147 173 172 122 78 69 183 187 181 154 
162 123 126 104 111 138 152 146 144 117 167 174 112 109 145 190 107 124 118 97 131 124 136 133 89 166 181 154 194 180 181 167 112 123 154 215 156 186 113 106 110 130 133 174 150 145 71 116 144 134 159 159 130 122 157 203 174 139 131 136 72 157 145 174 
108 184 127 115 101 105 186 168 164 119 183 175 147 97 162 145 117 156 171 108 107 171 161 98 99 122 152 180 178 180 181 206 150 89 131 170 180 167 155 105 113 180 187 118 84 92 82 112 109 92 182 178 163 135 165 147 135 133 151 146 52 102 146 145 
114 164 137 106 105 110 132 138 154 139 154 156 155 167 126 123 100 150 149 118 126 176 165 117 120 167 144 147 126 153 134 176 143 103 78 172 136 147 133 77 145 183 196 139 66 72 153 183 192 164 109 149 167 113 81 118 131 175 175 162 76 186 166 135 
100 148 138 119 171 126 182 167 175 169 98 132 181 119 73 118 165 122 107 140 44 140 133 138 204 145 151 158 127 208 99 165 137 71 107 132 198 93 108 138 125 192 191 164 141 159 161 184 140 145 165 70 44 81 170 121 128 92 128 156 207 199 141 90 
77 171 129 131 147 184 173 92 120 128 149 142 151 119 119 165 130 83 148 158 138 144 95 105 156 185 163 121 54 94 167 176 171 127 79 202 136 105 103 126 105 171 195 128 101 168 153 132 142 174 170 97 138 116 118 67 117 113 107 112 175 179 163 172 
95 177 139 100 136 118 152 109 126 96 142 120 101 121 145 145 172 92 123 196 161 117 75 99 158 122 180 108 112 59 155 132 119 110 134 211 179 107 127 138 122 159 177 106 73 93 171 137 139 140 145 130 150 158 164 128 165 163 132 131 140 105 178 136 
133 175 174 117 139 112 131 163 104 94 141 88 101 90 156 106 158 115 135 163 215 162 126 108 158 161 107 106 133 98 118 117 149 144 150 169 164 122 158 130 160 128 135 142 112 65 101 106 134 122 119 133 86 108 159 182 113 136 173 103 179 97 155 181 
