P2
64 64
255
217 130 125 136 124 75 124 204 209 177 75 35 110 202 166 225 169 141 159 175 151 83 67 87 146 189 205 194 88 112 222 175 142 92 189 163 143 72 137 147 130 107 114 147 90 121 87 142 193 197 218 201 192 193 181 114 82 193 149 170 212 142 132 110 
137 116 122 165 112 134 133 117 109 118 148 128 130 120 121 144 153 136 127 162 173 147 176 160 122 118 142 93 159 133 108 151 164 158 174 97 84 133 170 180 131 124 131 124 178 139 99 67 151 188 167 153 115 111 163 182 145 187 140 62 86 146 172 180 
140 109 138 152 115 157 127 97 105 105 138 131 121 148 148 113 139 125 151 143 175 151 156 171 166 128 145 143 122 158 141 90 135 172 146 139 89 142 139 114 166 144 135 190 176 131 106 98 122 149 87 122 104 135 123 136 175 209 99 81 123 134 169 195 
147 174 193 126 135 158 160 161 146 154 118 64 116 144 165 140 137 137 120 160 212 158 149 103 182 161 120 203 167 153 143 91 68 67 155 109 100 112 125 140 142 183 207 210 102 122 132 144 98 90 125 87 134 204 107 127 90 184 105 116 188 124 138 201 
141 142 81 121 119 99 113 170 107 99 166 99 84 87 113 126 124 126 114 139 157 154 175 147 155 148 187 137 170 158 95 148 146 145 89 111 143 145 118 81 148 90 113 142 121 138 142 177 173 128 100 155 140 150 186 127 77 86 137 157 195 117 87 193 
124 121 120 100 141 104 107 173 136 121 166 73 80 132 132 110 112 99 104 167 163 154 108 103 198 161 137 153 106 111 145 141 143 143 80 76 91 169 160 146 196 130 118 167 147 158 121 123 133 151 180 181 173 132 153 97 154 60 161 203 186 127 125 180 
97 134 117 92 181 150 112 144 178 170 163 85 108 142 172 150 111 125 140 122 178 142 114 91 165 187 99 116 125 122 143 176 193 198 72 66 84 154 167 178 186 108 127 176 145 129 95 114 150 147 152 170 114 95 166 174 152 98 161 186 149 115 122 150 
182 102 115 103 114 118 190 183 189 154 67 102 118 156 133 145 81 82 140 141 115 102 151 165 95 162 167 94 179 145 151 188 170 120 219 160 93 95 134 176 166 129 146 116 129 145 151 202 153 168 78 139 139 152 92 149 144 117 148 122 91 143 136 120 
111 135 150 116 68 137 198 168 149 158 118 110 144 145 153 127 126 91 133 156 146 141 153 181 144 141 112 103 116 139 135 115 128 126 126 113 112 74 158 154 177 141 150 165 176 155 103 101 122 127 92 132 154 157 75 141 140 96 145 100 114 153 151 183 
112 160 152 136 66 157 189 152 165 145 149 122 141 165 190 183 163 90 153 133 146 126 117 132 150 127 126 127 120 114 113 88 75 131 80 90 96 135 152 153 177 122 156 178 156 126 88 99 157 128 144 119 98 124 124 86 122 121 144 112 103 145 172 178 
105 83 95 179 135 101 171 137 131 157 99 174 149 179 188 133 138 143 108 127 161 103 92 105 115 109 178 157 115 56 80 101 104 174 73 91 83 70 194 186 136 189 160 152 89 72 92 179 204 156 138 91 98 127 133 91 77 112 108 129 193 86 93 190 
65 78 90 97 94 133 170 166 164 184 153 172 160 142 130 163 132 76 114 117 161 101 116 156 141 151 149 135 124 161 160 166 147 123 111 99 131 108 107 127 113 104 142 151 139 118 67 119 159 120 180 120 84 102 84 115 195 171 150 175 128 110 75 126 
73 113 110 110 117 134 156 177 166 145 156 166 145 131 152 148 155 101 126 156 192 131 110 167 140 182 148 108 153 156 148 164 110 136 126 98 141 158 79 97 121 103 148 159 142 116 137 82 147 126 211 95 74 76 91 119 169 188 180 173 156 98 133 147 
105 172 188 131 183 126 161 170 144 91 87 136 153 185 168 163 140 137 173 201 156 171 158 88 115 146 148 140 167 182 158 125 85 85 119 162 132 69 111 117 71 93 133 110 115 164 163 96 150 178 178 107 103 111 127 116 125 128 97 106 56 124 144 78 
171 168 131 116 185 148 151 200 160 153 99 153 177 114 153 184 140 129 96 91 68 158 125 80 111 133 111 144 175 170 221 117 107 100 158 147 125 91 85 81 170 118 123 86 165 173 110 189 119 109 191 162 136 183 119 178 181 110 70 92 146 146 184 152 
153 145 164 132 194 188 133 138 145 141 136 163 202 137 163 101 115 121 140 104 86 144 131 79 127 110 55 164 148 120 108 106 94 100 151 155 145 104 91 136 167 117 142 131 153 174 118 112 117 136 150 103 147 167 156 175 154 143 106 101 173 140 140 146 
75 101 102 188 158 149 156 173 100 106 153 146 187 203 128 96 105 132 146 103 116 95 100 88 140 103 96 187 126 123 96 101 126 163 134 127 122 124 127 153 149 165 176 187 171 165 158 92 168 162 157 88 94 155 147 131 97 138 106 116 128 119 137 151 
59 104 113 97 118 102 111 145 143 147 152 161 166 130 175 160 157 192 106 128 185 164 122 55 159 172 151 104 138 126 92 116 125 134 145 179 172 119 91 129 185 159 169 174 90 95 79 149 141 156 92 151 179 118 195 185 140 97 162 147 112 169 176 143 
127 154 130 153 122 98 158 181 102 129 193 158 162 124 107 124 162 124 140 94 158 117 97 91 120 143 142 159 159 151 173 148 170 127 99 137 175 112 101 121 106 108 141 189 123 102 106 106 170 179 134 141 142 138 171 163 135 124 111 109 105 118 130 147 
163 170 125 133 101 142 152 149 166 140 159 121 141 107 100 141 126 103 102 109 89 76 112 141 109 121 166 142 104 129 176 187 159 77 102 85 122 115 105 136 139 102 134 167 115 124 107 114 128 159 155 122 147 136 163 176 156 125 136 83 98 150 143 136 
202 123 92 87 56 156 145 151 202 199 57 113 111 159 99 98 88 50 159 158 99 118 175 174 106 156 170 100 187 206 113 183 157 144 187 122 113 40 135 153 156 153 138 161 142 120 169 180 159 140 89 110 173 161 111 172 154 117 90 100 79 137 133 154 
110 83 130 131 124 144 112 156 89 91 108 117 126 132 156 133 132 149 149 156 75 72 122 167 99 150 152 105 123 102 147 113 135 104 129 142 184 127 151 123 133 128 149 143 172 132 88 108 156 166 120 121 113 100 114 140 140 152 154 178 136 176 161 109 
101 90 135 165 122 154 67 116 146 97 134 98 111 165 166 134 144 124 172 142 110 112 120 146 120 148 142 136 93 85 146 106 96 114 121 138 159 159 116 129 117 138 118 131 131 78 116 98 125 144 139 111 128 120 144 148 107 165 166 152 155 177 167 136 
119 143 121 135 158 128 117 176 185 149 91 83 121 151 143 116 127 138 87 87 166 127 104 114 83 164 191 152 146 113 98 146 163 132 141 140 106 55 135 131 107 88 87 94 161 143 127 167 150 143 153 197 153 116 157 125 99 211 115 105 153 158 189 132 
101 134 151 115 120 134 97 69 144 153 129 127 119 104 160 168 157 112 131 135 161 146 116 114 85 90 108 125 145 126 125 109 137 144 144 161 153 163 167 162 162 147 137 147 95 115 154 88 107 113 187 166 126 108 115 148 146 136 123 116 124 184 168 128 
63 139 164 171 132 137 123 117 114 146 127 143 158 176 150 180 119 130 83 127 173 117 123 116 109 113 153 134 156 175 101 122 145 87 113 186 200 189 159 173 171 130 148 140 119 112 140 107 60 97 145 126 119 131 140 176 194 150 158 140 138 176 177 122 
143 138 139 168 164 141 107 170 172 179 91 186 189 166 92 113 140 119 106 95 156 136 103 106 99 169 171 178 181 204 175 191 130 98 136 180 180 197 209 178 84 121 154 188 176 119 102 113 69 58 112 77 118 190 175 140 174 162 183 162 169 151 144 194 
161 172 163 168 94 47 99 168 173 168 114 174 177 149 181 169 145 108 144 148 102 156 186 148 135 155 73 101 119 130 49 111 104 88 187 179 176 191 133 86 112 162 140 109 115 90 85 194 126 80 97 172 164 72 170 124 114 197 159 159 170 124 145 227 
162 147 130 136 98 145 154 200 173 107 130 104 162 101 161 157 126 94 154 147 105 136 107 99 166 127 109 143 84 116 177 141 133 88 118 128 111 174 128 95 84 124 155 113 111 127 121 161 157 154 191 155 133 142 95 137 143 140 121 134 197 155 127 154 
147 171 174 182 124 117 179 189 97 113 86 147 124 95 102 129 96 86 147 166 121 123 128 153 179 163 167 132 119 121 144 122 147 164 127 82 105 123 130 119 106 118 140 145 175 141 130 162 141 145 204 125 104 159 95 120 161 133 111 107 161 147 119 92 
192 181 177 190 197 115 103 112 184 165 185 101 93 85 69 116 150 116 181 169 181 196 141 195 206 131 98 142 143 172 70 129 148 194 91 142 180 175 144 136 141 155 169 145 151 123 112 120 138 105 139 114 53 56 128 155 153 137 119 84 65 118 116 159 
124 182 167 154 92 153 153 135 143 134 132 139 164 184 158 123 80 59 133 188 186 163 152 118 182 171 147 98 119 128 94 157 174 174 105 140 178 172 123 111 159 155 146 102 150 128 104 63 118 138 131 107 78 143 187 162 187 157 156 177 163 119 109 171 
117 144 175 149 105 149 139 99 111 138 96 102 116 161 173 157 114 75 162 162 216 147 120 125 164 165 173 79 110 97 112 174 170 110 95 166 163 181 113 87 188 176 100 120 118 149 127 96 105 128 96 110 147 170 195 215 170 195 218 166 150 125 110 139 
84 106 120 156 182 103 107 88 140 113 178 80 85 59 67 144 212 212 204 169 188 133 70 96 184 162 153 135 72 104 173 155 103 96 96 80 105 181 123 93 177 104 71 81 120 113 122 130 136 110 103 158 132 144 174 178 187 152 184 151 78 158 137 148 
112 165 172 141 160 122 87 105 113 141 81 78 104 92 175 167 168 197 165 80 142 164 129 100 138 91 76 218 123 101 111 151 125 93 178 161 94 208 163 118 195 114 157 148 134 133 107 166 168 156 173 144 139 145 160 183 157 169 120 135 156 153 135 100 
92 201 176 150 83 95 130 121 132 153 63 124 131 132 204 157 73 150 158 120 184 176 141 113 164 104 130 121 131 102 118 149 145 105 120 152 166 189 156 138 200 192 129 134 148 103 75 109 122 169 143 143 122 143 173 175 183 191 161 142 175 135 112 123 
131 200 151 115 98 95 157 103 148 146 74 145 163 183 198 99 76 64 134 174 204 175 148 129 174 149 122 60 97 107 107 175 161 187 88 111 202 160 134 106 188 192 153 85 131 108 123 83 105 146 134 75 126 161 174 189 193 167 175 198 181 111 102 186 
88 110 133 156 111 111 96 73 159 162 117 92 150 159 100 126 165 114 166 201 151 161 131 145 178 175 113 92 125 166 194 156 116 114 127 132 160 201 179 124 127 135 129 181 113 162 158 124 139 120 90 134 110 157 90 118 123 112 97 119 153 141 152 155 
136 115 149 149 75 86 117 150 124 148 160 145 123 182 102 156 178 159 142 178 155 142 106 108 156 121 97 100 136 134 189 144 129 110 101 133 127 181 147 97 89 122 113 194 165 168 163 175 104 111 103 155 167 156 113 83 69 97 116 122 130 129 140 101 
126 120 139 158 104 104 130 169 138 124 181 160 118 142 112 114 176 170 163 170 114 141 138 124 147 119 71 82 136 123 176 149 126 83 103 78 143 145 146 94 107 82 135 181 183 194 181 153 129 107 119 192 156 182 154 107 74 135 141 133 93 144 138 119 
208 148 175 216 140 149 118 99 48 134 179 109 82 102 88 148 163 158 186 210 50 83 146 133 93 127 114 83 109 180 129 98 123 159 97 108 166 121 120 179 144 175 157 145 212 171 123 61 144 145 181 145 139 123 134 158 194 160 187 144 70 124 178 155 
118 108 136 137 147 138 132 130 165 153 133 175 176 118 163 96 90 189 148 118 130 166 169 114 119 112 116 152 149 165 156 151 140 223 153 146 78 173 129 113 125 107 122 151 207 203 166 90 64 118 153 182 184 145 130 142 167 165 123 83 110 128 148 149 
102 87 103 152 184 151 136 137 128 147 198 188 161 136 189 130 94 189 115 97 132 149 121 103 113 102 102 161 143 113 138 173 171 164 114 75 75 190 113 102 114 75 100 150 157 175 172 124 100 104 188 141 170 159 119 151 177 168 125 130 117 103 102 187 
118 88 110 143 177 158 109 189 140 161 217 147 122 108 177 129 134 216 199 154 123 121 101 106 142 136 90 72 69 104 204 185 196 212 89 128 93 190 104 125 110 76 119 185 98 92 126 159 110 133 158 96 156 165 119 192 179 139 144 180 149 54 124 169 
107 95 97 183 168 170 182 103 88 125 209 131 81 109 85 114 178 96 106 112 201 96 103 145 106 136 182 148 169 184 137 180 178 133 60 116 173 162 139 125 136 139 163 183 161 145 166 110 157 153 177 139 126 189 136 114 112 74 106 158 145 86 78 133 
112 149 163 195 145 162 157 148 125 115 137 84 95 156 68 66 150 140 116 125 187 78 138 180 125 138 188 108 133 187 129 135 141 159 102 157 148 126 160 142 148 192 163 168 144 119 155 136 102 147 163 147 161 125 123 101 126 104 146 86 81 129 119 121 
150 173 161 180 104 92 120 155 123 100 112 91 130 176 124 111 129 185 99 112 151 117 130 179 166 162 162 141 181 174 118 92 137 182 178 147 138 158 132 113 144 153 146 158 117 135 131 159 120 113 192 135 152 109 100 147 151 131 122 84 117 78 106 118 
204 192 135 94 142 144 168 72 155 186 186 139 131 148 117 67 96 142 117 112 103 131 164 212 191 179 181 182 183 148 53 127 180 209 200 218 153 85 109 142 143 171 151 87 107 78 70 108 97 90 174 150 151 181 167 213 201 129 145 165 157 104 74 100 
161 172 146 135 172 112 126 60 114 176 155 98 106 152 110 131 155 174 140 136 179 117 167 168 163 134 153 106 113 147 128 116 130 157 113 177 178 161 170 183 105 151 144 143 96 72 82 69 120 168 137 117 157 155 95 171 157 136 145 163 181 144 127 139 
135 167 156 161 146 121 105 62 122 162 159 137 147 142 108 135 174 155 111 126 213 142 160 186 157 146 129 105 82 98 142 91 86 113 127 155 136 176 180 163 77 110 131 150 132 127 125 69 143 156 102 94 142 158 109 147 162 113 160 196 112 136 154 115 
63 175 169 224 195 236 182 82 101 136 162 157 177 137 121 95 60 148 124 75 199 189 138 141 157 140 217 147 155 166 194 89 66 125 164 156 104 202 175 151 168 130 117 124 145 198 131 103 128 84 112 179 159 87 70 112 120 130 171 127 45 90 79 123 
131 197 189 139 170 127 87 159 136 120 157 162 183 122 101 70 118 160 158 124 162 146 131 200 145 159 101 178 173 133 136 68 103 139 194 197 170 119 85 106 161 190 178 161 132 145 157 160 90 66 103 127 123 132 157 115 64 194 177 147 51 155 192 157 
185 174 172 158 134 131 119 121 133 86 172 188 166 113 120 122 127 211 185 158 150 129 173 187 141 117 115 156 94 85 109 117 125 136 156 173 157 95 125 140 178 167 176 165 130 150 153 119 68 92 153 85 110 170 132 128 121 190 164 125 125 173 155 186 
166 125 152 180 128 146 192 82 98 71 181 185 141 81 156 137 126 202 194 168 138 145 191 152 169 165 159 123 80 81 48 157 153 108 100 96 101 146 194 186 197 133 123 109 174 139 111 84 72 107 202 92 79 123 167 113 110 197 123 97 207 174 116 163 
102 172 182 179 157 152 134 179 115 100 64 145 174 151 149 159 142 115 158 158 167 168 169 115 172 158 166 116 138 163 131 104 121 104 111 160 108 93 98 116 96 131 101 106 165 166 153 105 130 149 217 107 102 91 161 160 97 121 97 99 55 161 165 148 
149 157 171 103 120 128 116 177 119 110 175 147 149 151 143 155 174 158 186 193 163 137 133 139 164 146 152 122 122 126 185 149 144 151 152 175 127 117 95 126 95 129 118 129 88 138 135 109 153 167 101 82 125 71 125 166 113 119 85 127 156 160 165 136 
158 153 142 112 92 100 74 137 105 91 174 155 146 142 176 188 204 142 130 174 213 114 67 126 177 117 91 167 167 154 171 147 136 162 147 203 165 153 118 132 119 148 135 96 90 99 116 162 144 124 81 105 80 112 202 127 62 101 107 88 198 157 164 161 
125 153 133 116 186 164 149 162 103 98 47 143 122 116 102 84 127 179 178 182 222 105 96 121 166 133 93 82 53 106 192 116 91 112 199 148 82 177 95 112 209 146 129 130 134 170 178 117 102 105 193 155 162 140 142 149 123 133 160 185 176 123 136 163 
150 192 176 176 163 166 155 126 118 67 74 149 163 117 158 100 74 179 157 176 99 163 178 150 136 169 105 112 113 88 162 132 102 96 164 159 165 170 156 185 143 174 130 124 151 163 223 142 135 139 114 126 156 150 139 149 128 91 122 107 115 90 108 166 
157 204 175 124 98 149 153 150 113 99 137 142 144 154 152 133 135 164 164 135 81 171 181 132 115 131 103 123 127 66 161 156 114 145 120 151 184 187 161 198 167 233 140 123 122 164 171 195 222 191 116 120 150 180 204 85 116 109 74 70 129 89 135 198 
197 139 127 64 106 90 128 182 148 141 96 146 170 172 102 181 192 174 127 78 166 117 98 56 126 150 137 71 135 158 179 183 203 177 205 198 202 112 118 191 200 183 200 152 72 140 165 167 168 167 77 53 67 74 118 126 96 194 184 164 133 173 184 178 
90 175 167 172 80 134 180 204 142 122 141 135 111 103 136 102 114 111 126 136 184 156 153 149 204 212 153 71 141 172 167 182 178 190 101 122 159 127 160 167 117 105 111 100 135 120 113 172 143 159 131 152 160 164 159 120 144 168 122 66 126 157 145 125 
99 124 132 160 118 134 169 175 111 106 182 136 135 157 155 177 141 102 126 126 201 160 173 207 183 143 168 110 119 153 135 155 139 168 109 112 128 189 164 157 139 114 115 122 127 105 114 164 149 131 145 158 144 153 140 143 148 155 149 86 108 152 146 98 
170 93 67 72 136 127 120 116 111 162 167 195 181 222 185 170 200 114 130 155 196 164 183 198 80 97 137 142 145 167 117 102 74 71 127 113 75 171 137 132 170 165 154 172 143 136 137 182 118 105 127 172 161 98 173 179 134 124 121 129 178 160 181 165 
