P2
64 64
255
217 151 121 139 119 118 161 124 98 72 83 175 215 230 209 191 162 97 53 29 42 110 182 204 195 180 212 199 169 120 131 141 162 170 169 151 107 82 54 76 81 128 146 154 186 208 204 203 159 88 109 139 189 198 184 165 142 107 107 170 173 162 145 143 
158 133 124 128 137 149 123 82 91 127 131 130 147 155 156 152 140 106 110 114 106 100 131 150 135 201 150 159 174 156 138 109 158 177 179 151 142 114 126 143 133 100 128 138 151 181 143 143 154 143 138 113 112 130 169 182 173 138 125 177 184 136 141 129 
136 119 116 128 140 174 150 125 123 126 122 138 109 93 91 84 110 134 142 136 124 133 111 110 123 113 137 125 139 146 132 120 151 148 148 173 168 165 181 179 165 158 118 128 122 157 146 80 90 145 210 124 107 112 126 163 162 167 176 156 170 111 79 72 
149 133 112 121 150 165 168 125 136 122 125 138 101 94 88 118 98 151 152 138 130 139 109 124 134 126 115 130 121 119 136 133 145 156 146 159 161 177 160 165 185 188 143 114 144 140 135 100 88 131 188 155 121 105 110 163 142 192 176 155 160 121 87 73 
152 152 133 141 146 130 163 115 113 153 134 132 119 112 116 117 121 122 109 108 91 128 154 154 148 164 126 123 127 142 116 142 139 156 139 197 152 154 153 155 142 165 170 156 142 157 140 165 153 126 123 149 148 131 86 120 112 124 148 136 135 153 93 98 
146 178 162 178 179 132 132 139 116 152 167 170 154 155 152 164 154 117 99 71 28 118 165 144 163 147 143 110 143 173 131 124 114 142 198 215 149 166 168 138 92 126 175 188 153 149 118 191 200 165 105 173 165 150 85 73 69 70 84 143 143 121 93 99 
181 141 156 158 126 146 137 134 131 122 118 156 153 150 113 119 140 107 92 76 86 73 152 150 138 167 139 139 128 138 191 135 115 124 169 181 166 160 156 134 155 177 183 178 136 165 169 167 177 175 155 144 111 120 111 113 87 83 91 101 130 118 116 126 
141 155 134 117 75 113 113 119 119 99 87 124 182 150 107 56 124 163 155 105 99 84 96 99 100 134 123 118 124 127 122 129 100 127 149 157 144 162 180 175 157 146 155 155 150 195 184 145 161 170 146 136 91 85 151 183 146 137 126 98 86 107 129 143 
138 157 130 120 81 103 98 127 116 98 90 125 179 180 122 56 114 161 141 93 67 81 93 91 118 109 111 109 101 124 92 115 118 126 149 157 133 170 158 163 139 153 175 160 172 166 159 160 136 146 162 128 111 94 141 185 147 155 131 119 49 91 113 118 
102 118 150 151 83 96 120 156 170 100 127 131 146 150 146 144 137 150 140 91 63 89 108 136 150 130 134 125 116 137 98 112 106 141 181 171 181 141 123 96 78 150 191 172 160 117 141 150 124 111 115 101 133 131 137 203 144 159 148 107 50 76 107 96 
93 99 139 150 82 97 121 182 178 154 118 117 140 133 186 152 133 152 129 79 110 116 142 135 152 207 155 158 118 128 122 126 157 114 162 178 149 144 123 101 54 95 166 159 158 107 94 126 123 143 83 120 129 124 141 188 208 230 189 116 52 58 65 73 
104 162 148 133 110 93 136 149 127 113 138 144 157 156 182 182 188 161 132 109 86 101 154 153 149 164 140 122 90 97 105 120 138 133 148 131 130 125 108 115 137 112 153 161 157 120 124 118 119 115 112 118 117 114 169 157 161 153 163 142 113 101 91 90 
174 164 91 100 114 99 129 122 116 134 186 161 175 176 178 201 165 92 106 105 73 120 149 152 139 143 138 96 79 71 99 102 153 157 105 110 88 111 112 165 169 146 96 115 177 159 156 101 116 163 160 138 136 138 184 159 162 133 130 171 205 153 112 103 
169 151 113 104 121 91 101 99 112 151 202 181 186 169 181 180 148 92 96 121 84 119 150 142 148 118 109 94 76 55 99 107 165 155 122 119 96 107 122 169 153 157 98 108 163 153 168 119 124 168 180 140 145 144 169 163 164 144 125 177 216 156 128 96 
111 125 156 165 137 116 118 68 79 141 184 207 166 157 149 165 145 98 119 116 104 144 138 161 185 143 127 123 126 115 81 118 162 159 155 146 139 149 139 159 191 131 144 137 135 111 132 110 104 116 152 132 132 128 119 124 128 120 130 112 118 116 136 112 
87 138 178 172 142 86 104 84 79 153 181 171 201 170 169 178 133 139 146 157 91 163 174 166 168 196 152 155 145 117 118 139 146 139 154 188 151 148 112 119 121 166 150 143 103 135 113 113 121 130 110 165 132 138 124 85 112 101 79 68 93 62 79 113 
112 153 167 144 138 145 131 88 102 166 179 170 141 152 153 147 130 126 124 116 128 145 151 174 185 164 189 169 155 107 78 127 139 132 142 137 106 128 110 111 124 101 137 154 139 130 122 142 142 116 105 96 107 98 95 92 81 117 127 101 66 89 113 120 
92 89 96 118 138 185 157 126 115 146 176 175 137 144 140 123 150 106 93 143 182 144 163 187 153 177 159 153 144 102 112 100 104 112 154 166 124 101 82 90 82 111 114 109 132 165 168 158 163 118 71 85 76 90 113 97 102 156 148 77 72 71 83 110 
72 64 95 104 145 183 158 96 95 144 170 184 161 146 143 143 169 116 100 151 199 134 175 167 150 176 149 142 138 111 134 120 118 115 136 164 132 102 109 108 99 104 128 131 125 159 166 151 154 114 88 103 115 110 124 97 111 164 150 98 67 74 96 105 
63 58 87 98 124 112 108 78 77 145 178 169 164 168 170 167 194 140 132 165 185 158 149 154 143 114 164 134 132 105 62 123 137 120 147 157 150 100 98 127 131 118 140 140 150 134 136 132 137 122 138 145 159 149 167 139 151 121 139 132 89 104 119 136 
74 87 60 84 102 91 133 107 87 127 174 176 148 141 153 172 142 177 189 176 181 144 153 150 158 142 127 166 176 114 71 74 66 104 152 162 129 74 84 169 184 186 163 160 165 171 133 128 122 130 203 150 133 169 189 165 118 130 127 140 110 129 115 130 
73 92 108 90 132 105 94 117 120 131 159 144 170 181 166 130 136 166 161 169 181 145 125 144 156 142 140 148 155 120 107 113 137 145 176 192 159 121 120 111 178 139 140 151 179 173 127 118 122 153 160 152 161 157 166 143 110 126 128 108 128 98 111 141 
64 127 188 172 164 134 146 154 152 138 155 173 192 185 141 120 87 90 94 139 166 161 163 169 161 165 146 156 151 107 125 170 180 173 197 191 156 166 144 121 119 107 114 131 162 139 151 140 137 174 165 176 140 152 142 118 82 93 104 131 122 135 123 140 
113 143 189 186 147 115 161 184 181 120 159 172 182 170 151 97 87 87 83 140 156 153 182 173 159 190 159 151 138 130 131 173 178 188 183 149 161 170 168 123 60 109 112 110 143 153 147 156 127 155 190 172 142 136 123 151 85 73 92 133 122 159 140 137 
162 164 190 183 116 95 150 188 178 137 144 157 195 204 165 135 140 109 115 170 182 173 126 109 146 180 143 131 121 113 150 142 143 129 93 105 141 154 133 103 69 124 119 113 112 145 116 151 152 150 197 174 196 181 123 148 99 73 110 158 185 147 116 127 
160 164 199 176 109 135 148 158 149 125 126 139 161 192 142 143 159 112 120 154 168 172 157 143 162 170 203 150 147 146 116 86 94 63 63 63 102 160 172 125 81 104 109 98 129 90 142 160 147 201 160 161 210 190 135 72 108 131 127 150 180 149 143 115 
153 162 163 172 153 118 151 189 184 167 123 128 142 156 140 106 151 145 147 165 197 211 155 143 159 190 124 115 129 160 119 150 113 106 93 86 119 144 159 115 81 96 110 109 107 53 92 163 165 165 146 131 133 141 114 114 86 85 79 109 191 153 129 125 
82 122 96 113 137 188 171 176 170 169 175 186 156 157 100 51 120 132 122 150 161 195 201 186 134 137 91 87 103 146 124 164 145 113 87 87 104 123 105 106 89 79 137 156 99 37 104 176 161 138 91 90 117 110 83 131 123 132 142 139 134 133 127 144 
75 87 92 84 139 189 165 158 162 149 156 165 177 158 100 58 107 130 134 139 157 187 203 181 125 114 109 95 105 114 146 159 128 122 70 116 118 92 113 94 89 98 140 151 89 68 130 180 187 126 109 122 92 102 107 115 126 132 152 158 116 128 135 122 
48 65 79 116 142 126 131 138 137 163 105 121 103 131 159 143 139 143 146 139 148 189 174 168 157 146 162 143 123 132 137 127 109 119 101 152 114 113 120 92 71 110 146 151 147 111 126 145 131 136 122 131 87 93 118 128 103 119 135 147 121 162 153 143 
54 103 109 108 117 85 109 114 137 96 82 107 147 148 146 149 124 126 165 170 150 161 133 155 198 172 142 187 170 149 208 134 117 116 126 187 143 175 172 80 42 112 170 150 165 162 141 110 118 149 157 120 91 88 127 97 125 138 127 140 165 167 169 170 
93 137 129 115 105 149 113 124 125 102 138 141 169 155 96 103 139 171 188 170 144 177 138 147 128 142 148 172 182 166 138 160 118 110 110 169 169 121 120 98 61 78 125 157 143 130 145 151 149 148 170 161 150 144 118 163 164 141 120 145 102 152 194 193 
145 172 186 162 149 140 101 104 122 117 156 174 166 143 137 83 156 175 179 169 136 154 129 97 85 115 117 143 136 136 137 142 111 100 116 113 112 95 81 84 97 105 122 121 116 133 157 152 163 135 108 126 180 167 175 197 162 127 106 118 76 86 149 135 
156 156 180 175 130 138 123 109 122 136 147 168 168 161 166 124 152 163 170 150 113 146 109 105 85 96 127 136 126 120 113 112 116 118 98 94 98 80 101 103 139 136 121 121 120 160 156 138 132 107 94 129 172 166 198 176 151 96 96 106 64 83 132 132 
164 147 128 113 93 107 119 105 105 164 164 182 165 159 188 197 161 133 122 104 115 134 135 125 90 94 112 134 108 63 74 89 152 161 100 88 70 120 127 152 177 148 101 93 135 175 185 152 113 114 159 157 149 146 174 160 165 104 96 141 127 124 99 109 
202 142 122 102 95 79 77 56 103 153 161 163 148 165 202 206 197 114 80 94 102 111 158 146 104 118 94 86 88 85 47 121 151 156 149 99 119 116 135 193 179 121 106 95 167 169 141 102 115 187 205 194 149 122 180 176 157 151 145 174 188 147 106 113 
134 108 94 88 118 109 114 122 128 133 161 142 167 155 125 178 122 101 116 139 101 128 153 162 144 122 119 111 111 143 112 118 186 180 111 86 79 98 134 177 200 125 76 94 166 176 150 110 114 149 166 122 133 135 149 153 154 111 118 177 178 118 147 160 
97 88 88 113 139 131 139 131 128 135 110 96 131 130 87 115 85 101 122 103 108 130 124 146 152 144 145 142 138 171 159 149 188 172 109 64 50 88 102 124 143 145 108 113 135 131 141 123 114 112 96 105 158 148 100 139 127 120 126 118 124 127 188 192 
102 86 90 120 143 142 153 125 143 132 81 88 110 116 108 87 98 102 125 103 119 131 127 139 155 164 168 133 157 185 143 175 202 167 97 69 79 105 120 118 144 126 117 126 143 114 156 143 120 98 55 115 154 115 93 136 104 105 124 113 86 138 188 172 
98 92 126 147 151 168 132 135 151 138 90 94 132 136 171 138 119 107 88 88 122 104 142 162 137 168 136 144 141 124 119 138 128 123 129 139 134 120 126 131 140 97 99 124 160 167 177 155 130 110 75 108 124 126 117 155 112 93 119 131 112 137 125 138 
116 143 152 137 116 136 156 155 135 115 75 159 189 172 180 218 128 102 92 57 116 131 143 156 127 146 114 103 117 151 143 109 74 78 131 167 154 122 115 115 118 129 85 81 166 175 167 156 164 154 118 89 74 108 131 159 170 145 152 157 138 148 112 104 
141 134 126 120 144 159 120 159 173 152 98 134 137 117 153 184 142 91 86 98 134 126 136 151 152 150 114 126 159 156 154 127 74 69 133 173 165 118 101 107 92 101 74 80 155 149 162 172 186 168 110 112 125 108 112 140 168 140 144 165 141 135 118 122 
101 124 128 152 134 119 93 120 152 129 88 105 79 88 144 176 141 120 106 113 124 119 95 98 146 179 173 157 157 144 98 139 115 123 181 161 161 150 133 112 128 95 85 105 87 79 134 132 152 145 124 145 111 109 114 117 137 156 140 131 160 158 149 153 
85 121 142 140 135 134 92 134 149 131 104 105 89 73 149 169 133 128 133 114 157 131 114 98 136 146 167 152 140 118 126 108 112 135 168 146 146 141 154 133 129 104 102 79 80 80 114 132 144 153 121 141 127 103 131 101 153 136 126 125 123 169 170 168 
70 134 140 158 174 188 134 145 153 123 116 109 131 115 128 170 129 101 126 152 178 180 177 161 152 143 143 136 132 125 139 103 97 112 136 152 134 121 125 131 117 102 115 94 130 168 148 149 156 158 179 186 141 129 155 158 150 101 78 106 125 180 197 196 
137 135 134 113 182 141 194 157 141 102 116 141 168 147 180 201 144 95 103 151 209 183 181 167 156 85 123 107 127 122 134 121 74 55 82 153 153 115 119 85 106 117 98 111 168 200 205 206 203 171 224 204 180 192 212 206 138 88 92 126 140 180 193 166 
151 127 154 132 153 206 142 127 115 124 85 92 155 182 174 221 170 112 91 178 199 192 178 172 127 84 106 157 151 116 97 104 102 140 143 168 123 130 133 127 99 91 101 126 169 136 158 150 149 173 223 157 162 190 151 187 127 108 116 118 123 175 198 192 
163 165 151 144 179 186 153 109 77 69 94 97 163 172 165 179 153 105 128 169 167 171 163 147 159 182 149 144 137 116 98 137 150 155 148 118 137 172 183 161 146 116 132 141 130 88 74 110 110 122 179 125 101 103 116 122 108 95 93 146 165 167 180 193 
178 184 153 138 166 156 159 98 92 77 95 113 166 172 184 174 158 135 120 147 164 167 145 137 158 189 175 158 149 123 125 136 161 148 140 91 143 174 171 145 142 122 151 158 103 63 71 68 106 124 150 109 97 93 109 101 94 77 84 156 162 168 161 160 
162 160 137 139 132 130 138 98 101 143 160 159 194 199 173 113 116 117 112 97 140 162 110 121 162 150 149 136 126 113 100 135 168 164 124 105 129 130 123 91 93 138 166 157 121 111 116 122 116 84 111 112 146 156 141 133 133 115 97 111 117 133 122 111 
129 145 128 135 189 182 158 101 103 124 206 176 182 155 121 108 98 105 94 98 124 140 110 115 92 86 150 122 84 80 108 76 167 139 112 152 124 111 124 101 108 116 157 182 193 185 164 122 126 102 95 149 196 176 142 149 149 128 150 115 92 85 67 74 
143 175 183 165 170 195 171 132 118 134 137 167 185 162 114 126 128 112 109 149 141 114 110 93 101 64 113 123 93 75 69 123 190 174 177 131 153 126 119 138 143 160 210 206 158 142 167 153 133 116 102 96 112 106 113 153 148 162 175 135 115 101 122 125 
169 193 185 159 181 192 203 191 171 119 105 119 143 130 176 174 164 150 157 136 89 95 78 76 71 53 103 144 123 114 86 136 187 173 191 161 187 172 155 144 178 192 228 201 147 111 127 159 133 142 178 115 81 86 122 143 157 179 189 125 88 117 182 177 
163 193 189 191 164 190 213 194 169 116 106 108 114 111 158 186 150 162 169 114 88 121 112 73 62 97 111 141 124 109 94 127 163 172 176 163 167 184 170 157 154 203 189 195 140 115 132 138 140 148 193 131 71 92 130 132 148 173 177 144 72 111 191 181 
112 183 196 195 147 162 165 107 107 152 141 127 117 145 141 127 129 142 133 130 149 166 177 178 126 153 145 121 106 94 55 108 181 190 187 164 149 151 141 130 124 166 181 186 174 163 153 118 99 133 137 95 88 116 143 135 169 179 177 135 83 130 184 198 
149 133 154 162 163 117 103 73 102 162 220 188 161 142 175 137 134 103 98 140 172 125 167 211 187 197 154 72 28 35 84 63 167 178 182 212 213 184 180 130 112 149 162 165 167 165 122 81 104 108 102 111 132 137 172 203 164 142 165 105 88 101 144 166 
117 121 145 162 160 156 122 105 114 144 140 131 107 102 111 124 124 104 96 100 111 116 141 162 182 161 159 123 114 101 77 138 160 160 177 216 170 137 119 127 119 125 164 170 175 205 135 92 78 110 93 102 123 117 154 177 170 135 106 78 119 141 169 163 
107 94 109 103 128 156 164 164 157 100 97 110 95 95 112 134 114 156 152 91 76 79 96 95 69 107 145 181 210 192 185 181 160 164 174 200 146 124 83 88 96 125 160 187 186 191 131 120 124 92 87 112 139 140 147 163 135 97 92 106 81 120 109 128 
78 124 107 108 124 140 184 182 170 97 96 103 107 86 121 113 120 174 177 95 60 97 98 68 70 81 133 205 211 204 198 207 173 140 154 168 152 114 102 87 96 147 178 151 145 155 135 128 115 74 96 120 153 146 151 135 112 88 94 114 80 95 101 106 
99 141 156 144 137 134 145 151 151 106 90 95 101 113 121 136 116 129 122 90 83 110 108 90 116 154 158 184 178 194 186 185 135 109 97 144 131 145 135 89 110 135 150 122 80 78 139 185 186 128 72 106 137 118 123 153 134 117 115 144 125 159 118 105 
103 152 185 178 177 137 163 154 151 122 67 84 107 85 106 157 152 88 72 95 49 99 98 109 180 176 180 186 173 224 176 176 110 69 92 108 163 144 151 130 99 131 126 109 82 80 122 199 179 132 108 68 64 93 176 177 148 80 96 157 211 181 110 86 
97 167 182 184 162 159 147 96 109 114 125 114 108 96 129 173 129 65 93 111 110 120 109 121 173 204 178 134 98 125 167 161 144 120 106 172 150 153 149 126 93 131 154 119 91 114 124 140 147 136 118 85 113 111 149 147 151 114 108 124 164 159 144 152 
115 177 190 170 150 118 119 74 86 118 170 142 107 115 142 152 141 66 79 141 139 137 145 164 198 184 173 76 67 43 93 108 143 149 174 222 201 160 161 135 105 144 185 153 122 124 143 96 92 104 113 109 124 134 171 175 187 179 154 116 95 106 187 174 
131 171 201 171 151 117 110 98 73 117 171 126 106 97 148 133 137 78 86 126 168 163 179 175 196 195 132 74 76 57 64 97 166 175 188 204 197 166 177 132 126 133 174 180 148 114 107 69 80 97 109 118 99 114 168 197 161 169 179 101 111 101 181 202 
